<?xml version="1.0" encoding="UTF-8" standalone="no"?>
<!-- Generator: Adobe Illustrator 10.0, SVG Export Plug-In . SVG Version: 3.0.0 Build 77)  -->

<svg
   xmlns:i="http://ns.adobe.com/AdobeIllustrator/10.0/"
   xmlns:dc="http://purl.org/dc/elements/1.1/"
   xmlns:cc="http://creativecommons.org/ns#"
   xmlns:rdf="http://www.w3.org/1999/02/22-rdf-syntax-ns#"
   xmlns:svg="http://www.w3.org/2000/svg"
   xmlns="http://www.w3.org/2000/svg"
   xmlns:sodipodi="http://sodipodi.sourceforge.net/DTD/sodipodi-0.dtd"
   xmlns:inkscape="http://www.inkscape.org/namespaces/inkscape"
   i:rulerOrigin="0 0"
   i:viewOrigin="30 534"
   space="preserve"
   i:pageBounds="0 792 612 0"
   viewBox="0 0 551.88797 400.38886"
   enable-background="new 0 0 551.879 277.308"
   overflow="visible"
   id="svg3673"
   version="1.1"
   inkscape:version="0.91 r13725"
   sodipodi:docname="DUX.svg"
   width="551.888"
   height="400.38889"
   style="overflow:visible">
  <defs
     id="defs3970" />
  <sodipodi:namedview
     pagecolor="#ffffff"
     bordercolor="#666666"
     borderopacity="1"
     objecttolerance="10"
     gridtolerance="10"
     guidetolerance="10"
     inkscape:pageopacity="0"
     inkscape:pageshadow="2"
     inkscape:window-width="1280"
     inkscape:window-height="698"
     id="namedview3968"
     showgrid="false"
     inkscape:zoom="1"
     inkscape:cx="291.40367"
     inkscape:cy="147.62307"
     inkscape:window-x="0"
     inkscape:window-y="1"
     inkscape:window-maximized="1"
     inkscape:current-layer="svg3673"
     fit-margin-top="0"
     fit-margin-left="0"
     fit-margin-right="0"
     fit-margin-bottom="0" />
  <flowRoot
     xml:space="preserve"
     id="flowRoot3984"
     style="font-style:normal;font-weight:normal;font-size:40px;line-height:125%;font-family:sans-serif;letter-spacing:0px;word-spacing:0px;fill:#008080;fill-opacity:1;stroke:none;stroke-width:1px;stroke-linecap:butt;stroke-linejoin:miter;stroke-opacity:1"
     transform="translate(-0.34768987,-78.535753)"><flowRegion
       id="flowRegion3986"><rect
         id="rect3988"
         width="510.77448"
         height="232.47652"
         x="20.889194"
         y="296.96045"
         style="fill:#008080;fill-opacity:1" /></flowRegion><flowPara
       id="flowPara3990"
       style="font-size:180px;text-align:center;text-anchor:middle;fill:#008080;fill-opacity:1">DUX</flowPara></flowRoot>  <g
     id="Layer_1"
     i:layer="yes"
     i:rgbTrio="#4F008000FFFF"
     i:dimmedPercent="50"
     transform="translate(0,0.09514071)">
    <g
       id="g3676"
       style="clip-rule:evenodd;fill-rule:evenodd">
      <path
         d="m 88.992,169.16 c 1.98,-7.848 2.736,-17.46 2.268,-29.664 C 90.72,127.184 88.38,108.824 86.184,96.764 83.88,84.812 81.252,75.452 77.904,68.252 82.44,73.724 86.04,81.356 89.1,91.724 c 2.916,10.368 5.112,22.788 6.588,38.088 2.088,-4.896 3.744,-12.348 5.4,-23.184 1.512,-10.836 2.88,-24.372 3.96,-41.148 0.288,7.056 0.216,14.004 -0.216,21.528 -0.504,7.452 -1.368,15.048 -2.592,22.788 -1.368,7.704 -3.132,14.976 -5.292,22.644 0.468,0.072 1.836,-2.124 4.248,-6.732 2.34,-4.752 8.028,-15.408 9.972,-20.88 1.872,-5.472 2.412,-9.396 1.476,-11.772 2.34,-0.252 3.456,1.368 3.348,4.86 -0.18,3.492 -1.008,8.748 -3.996,15.768 -3.024,6.84 -7.56,15.336 -13.896,25.488 -1.224,3.492 -2.412,7.776 -3.276,12.853 -0.9,5.004 -1.764,10.8 -2.304,17.388 -1.156,-0.09 -2.344,-0.16 -3.532,-0.27 z"
         i:knockout="Off"
         id="path3678"
         inkscape:connector-curvature="0"
         style="fill:#408000" />
      <path
         d="m 105.41,75.204 c -0.792,0.396 -1.512,0.108 -2.16,-0.72 -0.792,-0.936 -1.764,-0.288 -1.944,-4.86 -0.324,-4.788 -0.18,-18.108 0.72,-22.86 0.9,-4.716 3.204,-6.3 4.572,-5.04 1.296,1.224 2.808,7.092 3.132,12.312 0.072,5.076 -1.224,14.472 -1.944,18.072 -0.76,3.492 -1.73,2.628 -2.38,3.096 z"
         i:knockout="Off"
         id="path3680"
         inkscape:connector-curvature="0"
         style="fill:#a97408" />
      <path
         d="m 104.22,69.192 c -0.54,-0.36 -1.476,-8.244 -1.548,-11.7 -0.072,-3.636 0.216,-9.684 0.864,-9.396 0.54,0.216 1.908,7.668 2.16,11.232 0.15,3.492 -1.04,10.116 -1.47,9.864 z"
         i:knockout="Off"
         id="path3682"
         inkscape:connector-curvature="0"
         style="fill:#a16121" />
      <path
         d="m 93.744,137.41 c 0.036,-0.252 -0.036,-6.588 -0.756,-13.176 -0.864,-6.696 -2.376,-19.872 -3.708,-26.208 -1.368,-6.372 -3.636,-12.636 -3.744,-11.448 -0.072,1.26 1.98,11.808 3.24,18.468 1.116,6.552 2.664,14.616 3.528,20.16 0.828,5.52 1.26,12.18 1.44,12.21 z"
         i:knockout="Off"
         id="path3684"
         inkscape:connector-curvature="0"
         style="fill:#5f8736" />
      <path
         d="m 99.612,132.84 c -0.36,1.152 2.736,-3.816 4.968,-7.704 2.016,-3.96 6.948,-13.896 7.452,-15.228 0.324,-1.224 -2.808,3.42 -4.932,7.416 -2.2,3.85 -7.06,14.11 -7.488,15.51 z"
         i:knockout="Off"
         id="path3686"
         inkscape:connector-curvature="0"
         style="fill:#5f8736" />
      <path
         d="M 78.804,176.44 C 79.56,168.376 78.84,158.763 76.644,146.776 74.268,134.752 69.3,116.752 65.34,105.268 61.272,93.778 57.312,84.886 52.92,78.298 c 5.328,4.68 10.008,11.772 14.58,21.564 4.464,9.828 8.46,21.78 12.132,36.684 1.296,-5.04 1.872,-12.96 1.872,-23.76 -0.108,-11.016 -0.828,-24.444 -2.16,-41.256 1.404,6.912 2.304,13.824 2.988,21.312 0.576,7.452 0.936,15.048 0.792,22.932 -0.216,7.704 -0.792,15.336 -1.872,23.184 0.468,0 1.548,-2.376 3.24,-7.272 1.62,-5.04 5.616,-16.452 6.732,-22.14 1.08,-5.76 0.936,-9.576 -0.288,-11.844 2.268,-0.576 3.672,0.864 4.068,4.32 0.36,3.492 0.288,8.748 -1.62,16.164 -1.98,7.344 -5.256,16.2 -9.972,27.252 -0.792,3.672 -1.152,8.027 -1.368,13.212 -0.144,5.111 -0.144,10.907 0.288,17.532 -1.152,0.08 -2.34,0.15 -3.528,0.26 z"
         i:knockout="Off"
         id="path3688"
         inkscape:connector-curvature="0"
         style="fill:#408000" />
      <path
         d="m 81.18,81.108 c -0.72,0.504 -1.476,0.324 -2.268,-0.396 -0.864,-0.828 -1.8,-0.072 -2.664,-4.536 -0.9,-4.716 -2.844,-17.928 -2.628,-22.716 0.144,-4.824 2.232,-6.66 3.78,-5.652 1.404,1.044 3.924,6.624 4.932,11.736 0.936,5.004 0.864,14.436 0.756,18.144 -0.216,3.492 -1.224,2.916 -1.908,3.42 z"
         i:knockout="Off"
         id="path3690"
         inkscape:connector-curvature="0"
         style="fill:#a97408" />
      <path
         d="m 79.092,75.312 c -0.684,-0.36 -2.556,-7.848 -3.24,-11.34 -0.648,-3.6 -1.152,-9.612 -0.54,-9.432 0.54,0.216 3.096,7.236 3.78,10.8 0.612,3.528 0.468,10.044 0,9.972 z"
         i:knockout="Off"
         id="path3692"
         inkscape:connector-curvature="0"
         style="fill:#a16121" />
      <path
         d="m 78.804,144.36 c -0.072,-0.288 -0.972,-6.552 -2.7,-12.96 -1.836,-6.48 -5.364,-19.332 -7.524,-25.344 -2.268,-6.12 -5.508,-11.988 -5.4,-10.8 0.108,1.152 3.708,11.484 5.94,17.82 2.088,6.228 4.716,14.04 6.48,19.404 1.584,5.22 3.024,11.95 3.204,11.88 z"
         i:knockout="Off"
         id="path3694"
         inkscape:connector-curvature="0"
         style="fill:#5f8736" />
      <path
         d="m 83.952,138.96 c -0.216,1.26 2.16,-4.248 3.78,-8.352 1.404,-4.248 4.86,-14.832 5.112,-16.2 0.108,-1.368 -2.268,3.924 -3.78,8.1 -1.512,4.17 -4.932,14.94 -5.112,16.45 z"
         i:knockout="Off"
         id="path3696"
         inkscape:connector-curvature="0"
         style="fill:#5f8736" />
      <path
         d="m 352.76,183.24 c 2.592,-10.188 3.527,-22.933 2.953,-38.809 -0.648,-16.092 -3.781,-40.248 -6.625,-55.943 -3.023,-15.696 -6.443,-27.9 -10.836,-37.296 5.939,7.092 10.729,17.244 14.652,30.744 3.923,13.5 6.695,29.916 8.604,49.824 2.664,-6.3 4.969,-16.272 7.057,-30.348 2.016,-14.22 3.744,-31.788 5.184,-53.82 0.432,9.144 0.287,18.432 -0.289,28.152 -0.646,9.756 -1.727,19.692 -3.383,29.808 -1.691,10.044 -4.104,19.656 -6.949,29.664 0.613,0.072 2.484,-2.772 5.617,-8.82 3.168,-6.156 10.367,-20.16 12.996,-27.288 2.447,-7.2 3.096,-12.24 1.943,-15.408 3.023,-0.216 4.537,1.764 4.393,6.336 -0.18,4.464 -1.404,11.52 -5.221,20.628 -4.031,9.108 -9.863,19.944 -18.18,33.336 -1.729,4.608 -3.023,10.224 -4.283,16.848 -1.26,6.696 -2.232,14.04 -3.061,22.717 -1.5,-0.11 -3.01,-0.22 -4.56,-0.33 z"
         i:knockout="Off"
         id="path3698"
         inkscape:connector-curvature="0"
         style="fill:#408000" />
      <path
         d="m 374.26,60.3 c -1.08,0.54 -1.943,0.18 -2.881,-0.936 -0.971,-1.296 -2.23,-0.324 -2.52,-6.372 -0.287,-6.264 -0.252,-23.724 0.936,-29.88 1.189,-6.12 4.213,-8.28 6.014,-6.624 1.727,1.512 3.742,9.432 4.104,16.128 0.215,6.732 -1.656,18.828 -2.557,23.652 -0.93,4.5 -2.19,3.528 -3.09,4.032 z"
         i:knockout="Off"
         id="path3700"
         inkscape:connector-curvature="0"
         style="fill:#a97408" />
      <path
         d="m 372.67,52.416 c -0.684,-0.612 -1.908,-10.512 -2.016,-15.264 -0.18,-4.716 0.432,-12.672 1.152,-12.348 0.646,0.396 2.592,9.972 2.771,14.688 0.15,4.608 -1.32,13.176 -1.9,12.924 z"
         i:knockout="Off"
         id="path3702"
         inkscape:connector-curvature="0"
         style="fill:#a16121" />
      <path
         d="m 358.96,141.7 c 0.182,-0.252 -0.143,-8.64 -0.971,-17.244 -1.117,-8.676 -3.205,-26.064 -4.861,-34.272 -1.654,-8.316 -4.859,-16.56 -4.895,-15.012 -0.072,1.548 2.627,15.624 4.211,24.192 1.512,8.532 3.385,19.116 4.645,26.352 1.06,7.01 1.64,16.08 1.86,15.98 z"
         i:knockout="Off"
         id="path3704"
         inkscape:connector-curvature="0"
         style="fill:#5f8736" />
      <path
         d="m 366.62,135.72 c -0.611,1.548 3.781,-5.004 6.518,-10.08 2.807,-5.148 9.07,-18.18 9.756,-19.944 0.432,-1.692 -3.709,4.608 -6.445,9.72 -2.89,5.07 -9.22,18.46 -9.84,20.3 z"
         i:knockout="Off"
         id="path3706"
         inkscape:connector-curvature="0"
         style="fill:#5f8736" />
      <path
         d="m 364.82,189.9 c 2.627,-12.204 8.279,-26.316 17.387,-42.912 9,-16.74 25.236,-41.004 36.648,-56.124 11.449,-15.192 21.6,-26.244 31.285,-33.984 -10.152,4.464 -20.592,12.6 -31.896,24.984 -11.34,12.312 -23.004,28.296 -35.531,48.528 0.467,-8.1 3.275,-19.98 8.566,-36.072 5.256,-16.2 12.854,-35.856 22.934,-60.084 -5.365,9.54 -10.08,19.404 -14.58,30.132 -4.5,10.62 -8.785,21.996 -12.168,33.588 -3.457,11.556 -6.229,23.112 -8.316,35.244 -0.793,-0.288 -1.225,-4.212 -1.297,-12.348 -0.215,-8.244 -0.539,-27.036 0.576,-35.964 1.045,-8.964 3.168,-14.688 6.084,-17.46 -3.131,-1.872 -5.867,-0.432 -8.064,4.464 -2.34,4.86 -4.715,12.96 -5.328,24.732 -0.646,11.772 -0.07,26.496 1.729,45.145 -0.721,5.831 -2.16,12.42 -4.32,20.195 -2.23,7.668 -5.111,16.236 -8.783,25.849 1.7,0.69 3.39,1.37 5.08,2.09 z"
         i:knockout="Off"
         id="path3708"
         inkscape:connector-curvature="0"
         style="fill:#408000" />
      <path
         d="m 406.94,47.52 c 0.793,1.008 1.836,1.368 3.529,0.54 1.547,-0.864 2.664,0.828 6.119,-5.472 3.492,-6.444 12.672,-25.2 14.76,-32.364 1.873,-7.2 -0.252,-10.98 -2.879,-10.224 -2.736,0.9 -9.109,7.956 -12.889,15.048 -3.961,7.092 -8.352,20.844 -9.828,26.532 -1.4,5.4 0.29,4.788 1.19,5.94 z"
         i:knockout="Off"
         id="path3710"
         inkscape:connector-curvature="0"
         style="fill:#a97408" />
      <path
         d="m 412.81,39.96 c 0.898,-0.252 7.488,-10.332 10.188,-15.228 2.52,-4.968 6.191,-13.752 5.328,-13.716 -0.973,0.108 -8.172,9.18 -10.764,14.148 -2.74,4.788 -5.62,14.76 -4.76,14.796 z"
         i:knockout="Off"
         id="path3712"
         inkscape:connector-curvature="0"
         style="fill:#a16121" />
      <path
         d="m 380.16,142.34 c -0.072,-0.359 4.572,-9.288 10.188,-17.892 5.688,-8.748 17.027,-26.028 23.328,-33.912 6.084,-7.992 13.752,-15.048 13.141,-13.392 -0.828,1.656 -11.232,15.228 -17.316,23.508 -6.156,8.208 -13.932,18.612 -18.863,25.668 -4.94,6.99 -10.52,16.17 -10.48,16.02 z"
         i:knockout="Off"
         id="path3714"
         inkscape:connector-curvature="0"
         style="fill:#5f8736" />
      <path
         d="m 375.16,131.9 c -0.432,2.052 -1.332,-7.488 -1.584,-14.184 -0.252,-6.948 -0.252,-24.228 0.145,-26.424 0.215,-2.016 1.439,6.84 1.727,13.788 0.14,6.81 -0.01,24.63 -0.29,26.82 z"
         i:knockout="Off"
         id="path3716"
         inkscape:connector-curvature="0"
         style="fill:#5f8736" />
      <path
         d="m 339.44,192.78 c 1.045,-10.477 0.109,-23.185 -2.807,-38.809 -3.061,-15.66 -9.576,-39.384 -14.832,-54.359 -5.221,-15.012 -10.584,-26.676 -16.236,-35.28 6.875,6.192 13.176,15.408 19.043,28.224 5.797,12.78 11.088,28.584 15.877,47.988 1.656,-6.624 2.484,-16.776 2.484,-31.032 -0.109,-14.364 -1.045,-32.04 -2.809,-54 1.691,9 3.023,18.108 3.852,27.864 0.756,9.72 1.297,19.764 1.08,29.988 -0.252,10.08 -1.08,20.052 -2.484,30.348 0.648,0.036 2.016,-3.132 4.248,-9.504 2.232,-6.588 7.309,-21.42 8.82,-28.944 1.367,-7.416 1.297,-12.636 -0.359,-15.516 2.988,-0.756 4.752,1.116 5.291,5.616 0.469,4.572 0.361,11.592 -2.123,21.204 -2.592,9.54 -6.805,21.24 -13.033,35.64 -0.971,4.86 -1.512,10.477 -1.764,17.28 -0.252,6.696 -0.145,14.292 0.324,22.932 -1.51,0.11 -3.02,0.22 -4.57,0.36 z"
         i:knockout="Off"
         id="path3718"
         inkscape:connector-curvature="0"
         style="fill:#408000" />
      <path
         d="m 342.54,68.004 c -0.898,0.684 -1.943,0.468 -2.986,-0.504 -1.189,-1.152 -2.342,-0.036 -3.457,-5.94 -1.188,-6.084 -3.779,-23.436 -3.455,-29.7 0.287,-6.336 2.951,-8.676 4.932,-7.416 1.908,1.296 5.076,8.676 6.443,15.336 1.115,6.48 1.26,18.936 1.008,23.76 -0.36,4.716 -1.51,3.708 -2.48,4.464 z"
         i:knockout="Off"
         id="path3720"
         inkscape:connector-curvature="0"
         style="fill:#a97408" />
      <path
         d="m 339.8,60.444 c -0.793,-0.36 -3.457,-10.296 -4.248,-14.832 -0.9,-4.572 -1.404,-12.672 -0.686,-12.348 0.721,0.324 4.033,9.432 4.934,14.112 0.81,4.428 0.63,13.32 0.01,13.068 z"
         i:knockout="Off"
         id="path3722"
         inkscape:connector-curvature="0"
         style="fill:#a16121" />
      <path
         d="m 339.44,150.77 c 0.037,-0.324 -1.332,-8.604 -3.527,-16.92 -2.305,-8.532 -7.092,-25.236 -9.9,-33.192 -2.916,-7.956 -7.164,-15.624 -7.057,-14.112 0.037,1.656 5.041,14.976 7.777,23.292 2.699,8.136 6.264,18.504 8.459,25.416 1.99,6.94 4.18,15.54 4.25,15.51 z"
         i:knockout="Off"
         id="path3724"
         inkscape:connector-curvature="0"
         style="fill:#5f8736" />
      <path
         d="m 346.14,143.71 c -0.252,1.62 2.879,-5.544 4.932,-10.944 2.016,-5.508 6.299,-19.368 6.732,-21.168 0.215,-1.8 -3.061,5.148 -4.969,10.584 -1.97,5.37 -6.47,19.62 -6.69,21.53 z"
         i:knockout="Off"
         id="path3726"
         inkscape:connector-curvature="0"
         style="fill:#5f8736" />
      <path
         d="m 63.144,167.29 0,5.977 -63.144,0 c 1.764,-0.072 4.248,-0.648 7.308,-1.332 3.168,-0.792 7.344,-1.297 10.98,-3.313 3.456,-2.304 7.128,-5.4 9.612,-9.288 2.268,-3.852 2.592,-9.576 4.32,-13.284 1.548,-3.779 3.06,-6.731 5.652,-9 2.592,-2.484 6.192,-4.968 9.972,-4.968 3.708,-0.036 7.56,1.62 11.952,4.968 -5.76,-0.576 -10.008,0.144 -13.284,2.016 -3.312,1.979 -5.076,5.076 -5.976,9.288 -0.864,3.924 -1.512,11.34 0.684,14.615 2.088,3.133 8.208,3.889 11.952,4.645 3.672,0.68 6.948,0.57 9.972,-0.33 z"
         i:knockout="Off"
         id="path3728"
         inkscape:connector-curvature="0"
         style="fill:#0080ff" />
      <path
         d="m 106.34,167.29 0,5.977 -63.14,0 c 1.764,-0.072 4.248,-0.648 7.308,-1.332 3.168,-0.792 7.344,-1.297 10.98,-3.313 3.456,-2.304 7.128,-5.4 9.612,-9.288 2.268,-3.852 2.592,-9.576 4.32,-13.284 1.548,-3.779 3.06,-6.731 5.652,-9 2.592,-2.484 6.192,-4.968 9.972,-4.968 3.708,-0.036 7.56,1.62 11.952,4.968 -5.76,-0.576 -10.008,0.144 -13.284,2.016 -3.312,1.979 -5.076,5.076 -5.976,9.288 -1.008,3.924 -1.44,11.34 0.648,14.615 2.016,3.133 8.28,3.889 11.988,4.645 3.664,0.68 6.944,0.57 9.964,-0.33 z"
         i:knockout="Off"
         id="path3730"
         inkscape:connector-curvature="0"
         style="fill:#0080ff" />
      <path
         d="m 150.23,167.29 0,5.977 -63.11,0 c 1.872,-0.072 4.212,-0.648 7.308,-1.332 3.096,-0.792 7.344,-1.297 10.944,-3.313 3.528,-2.304 7.164,-5.4 9.648,-9.288 2.268,-3.852 2.592,-9.576 4.32,-13.284 1.548,-3.779 3.06,-6.731 5.652,-9 2.592,-2.484 6.192,-4.968 9.972,-4.968 3.708,-0.036 7.56,1.62 11.952,4.968 -5.76,-0.576 -10.008,0.144 -13.284,2.016 -3.312,1.979 -5.076,5.076 -5.976,9.288 -1.008,3.924 -1.44,11.34 0.648,14.615 2.088,3.133 8.208,3.889 11.952,4.645 3.68,0.68 6.95,0.57 9.98,-0.33 z"
         i:knockout="Off"
         id="path3732"
         inkscape:connector-curvature="0"
         style="fill:#0080ff" />
      <path
         d="m 194.15,167.29 0,5.977 -63.144,0 c 1.764,-0.072 4.248,-0.648 7.308,-1.332 3.168,-0.792 7.344,-1.297 10.98,-3.313 3.528,-2.304 7.164,-5.4 9.648,-9.288 2.268,-3.852 2.592,-9.576 4.32,-13.284 1.584,-3.779 2.952,-6.731 5.616,-9 2.592,-2.484 6.192,-4.968 9.972,-4.968 3.636,-0.036 7.632,1.62 11.988,4.968 -5.688,-0.576 -10.08,0.144 -13.32,2.016 -3.312,1.979 -5.076,5.076 -5.976,9.288 -0.864,3.924 -1.512,11.34 0.684,14.615 2.088,3.133 8.208,3.889 11.952,4.645 3.67,0.68 6.94,0.57 9.97,-0.33 z"
         i:knockout="Off"
         id="path3734"
         inkscape:connector-curvature="0"
         style="fill:#0080ff" />
      <path
         d="m 238.07,167.29 0,5.977 -63.144,0 c 1.764,-0.072 4.248,-0.648 7.308,-1.332 3.168,-0.792 7.344,-1.297 10.98,-3.313 3.456,-2.304 7.128,-5.4 9.612,-9.288 2.268,-3.852 2.592,-9.576 4.32,-13.284 1.548,-3.779 3.06,-6.731 5.652,-9 2.592,-2.484 6.192,-4.968 9.972,-4.968 3.708,-0.036 7.56,1.62 11.952,4.968 -5.76,-0.576 -10.008,0.144 -13.284,2.016 -3.312,1.979 -5.076,5.076 -5.976,9.288 -1.008,3.924 -1.44,11.34 0.648,14.615 2.016,3.133 8.28,3.889 11.988,4.645 3.67,0.68 6.94,0.57 9.97,-0.33 z"
         i:knockout="Off"
         id="path3736"
         inkscape:connector-curvature="0"
         style="fill:#0080ff" />
      <path
         d="m 281.95,167.29 0,5.977 -63.107,0 c 1.872,-0.072 4.212,-0.648 7.308,-1.332 3.096,-0.792 7.344,-1.297 10.944,-3.313 3.528,-2.304 7.164,-5.4 9.648,-9.288 2.268,-3.852 2.592,-9.576 4.32,-13.284 1.548,-3.779 3.06,-6.731 5.652,-9 2.592,-2.484 6.192,-4.968 9.972,-4.968 3.708,-0.036 7.56,1.62 11.953,4.968 -5.761,-0.576 -10.009,0.144 -13.285,2.016 -3.312,1.979 -5.076,5.076 -5.976,9.288 -1.008,3.924 -1.44,11.34 0.648,14.615 2.088,3.133 8.208,3.889 11.952,4.645 3.69,0.68 6.97,0.57 9.99,-0.33 z"
         i:knockout="Off"
         id="path3738"
         inkscape:connector-curvature="0"
         style="fill:#0080ff" />
      <path
         d="m 325.87,167.29 0,5.977 -63.143,0 c 1.764,-0.072 4.248,-0.648 7.308,-1.332 3.168,-0.792 7.343,-1.297 10.98,-3.313 3.527,-2.304 7.164,-5.4 9.648,-9.288 2.268,-3.852 2.592,-9.576 4.32,-13.284 1.547,-3.779 3.059,-6.731 5.652,-9 2.627,-2.484 6.119,-4.968 9.936,-4.968 3.707,-0.036 7.523,1.62 11.988,4.968 -5.76,-0.576 -10.008,0.144 -13.285,2.016 -3.275,1.979 -5.148,5.076 -6.012,9.288 -0.863,3.924 -1.512,11.34 0.684,14.615 2.088,3.133 8.209,3.889 11.953,4.645 3.67,0.68 6.95,0.57 9.97,-0.33 z"
         i:knockout="Off"
         id="path3740"
         inkscape:connector-curvature="0"
         style="fill:#0080ff" />
      <path
         d="m 369.79,167.29 0,5.977 -63.143,0 c 1.764,-0.072 4.248,-0.648 7.307,-1.332 3.168,-0.792 7.346,-1.297 10.98,-3.313 3.457,-2.304 7.129,-5.4 9.611,-9.288 2.27,-3.852 2.594,-9.576 4.32,-13.284 1.549,-3.779 3.061,-6.731 5.652,-9 2.592,-2.484 6.191,-4.968 9.973,-4.968 3.707,-0.036 7.561,1.62 11.951,4.968 -5.76,-0.576 -10.008,0.144 -13.283,2.016 -3.313,1.979 -5.076,5.076 -5.977,9.288 -1.008,3.924 -1.439,11.34 0.648,14.615 2.016,3.133 8.279,3.889 11.988,4.645 3.67,0.68 6.95,0.57 9.97,-0.33 z"
         i:knockout="Off"
         id="path3742"
         inkscape:connector-curvature="0"
         style="fill:#0080ff" />
      <path
         d="m 413.68,167.29 0,5.977 -63.107,0 c 1.871,-0.072 4.211,-0.648 7.307,-1.332 3.098,-0.792 7.346,-1.297 10.945,-3.313 3.527,-2.304 7.164,-5.4 9.648,-9.288 2.268,-3.852 2.592,-9.576 4.318,-13.284 1.549,-3.779 3.061,-6.731 5.652,-9 2.592,-2.484 6.191,-4.968 9.973,-4.968 3.707,-0.036 7.561,1.62 11.951,4.968 -5.76,-0.576 -10.008,0.144 -13.283,2.016 -3.313,1.979 -5.076,5.076 -5.977,9.288 -1.008,3.924 -1.439,11.34 0.648,14.615 2.088,3.133 8.207,3.889 11.951,4.645 3.68,0.68 6.95,0.57 9.98,-0.33 z"
         i:knockout="Off"
         id="path3744"
         inkscape:connector-curvature="0"
         style="fill:#0080ff" />
      <path
         d="m 457.6,167.29 0,5.977 -63.145,0 c 1.766,-0.072 4.248,-0.648 7.309,-1.332 3.168,-0.792 7.344,-1.297 10.98,-3.313 3.527,-2.304 7.164,-5.4 9.648,-9.288 2.268,-3.852 2.592,-9.576 4.318,-13.284 1.549,-3.779 3.061,-6.731 5.652,-9 2.629,-2.484 6.121,-4.968 9.936,-4.968 3.709,-0.036 7.525,1.62 11.988,4.968 -5.76,-0.576 -10.008,0.144 -13.283,2.016 -3.275,1.979 -5.148,5.076 -6.012,9.288 -0.865,3.924 -1.512,11.34 0.684,14.615 2.088,3.133 8.207,3.889 11.951,4.645 3.66,0.68 6.93,0.57 9.96,-0.33 z"
         i:knockout="Off"
         id="path3746"
         inkscape:connector-curvature="0"
         style="fill:#0080ff" />
      <path
         d="m 501.52,167.29 0,5.977 -63.145,0 c 1.766,-0.072 4.248,-0.648 7.309,-1.332 3.168,-0.792 7.344,-1.297 10.98,-3.313 3.455,-2.304 7.127,-5.4 9.611,-9.288 2.268,-3.852 2.592,-9.576 4.32,-13.284 1.549,-3.779 3.061,-6.731 5.652,-9 2.592,-2.484 6.191,-4.968 9.971,-4.968 3.709,-0.036 7.561,1.62 11.953,4.968 -5.76,-0.576 -10.008,0.144 -13.283,2.016 -3.313,1.979 -5.076,5.076 -5.977,9.288 -0.865,3.924 -1.512,11.34 0.684,14.615 2.088,3.133 8.207,3.889 11.951,4.645 3.68,0.68 6.95,0.57 9.98,-0.33 z"
         i:knockout="Off"
         id="path3748"
         inkscape:connector-curvature="0"
         style="fill:#0080ff" />
      <path
         d="m 545.4,173.27 -63.109,0 c 1.873,-0.072 4.213,-0.648 7.309,-1.332 3.096,-0.792 7.344,-1.297 10.943,-3.313 3.529,-2.304 7.164,-5.4 9.648,-9.288 2.268,-3.852 2.592,-9.576 4.32,-13.284 1.549,-3.779 3.061,-6.731 5.652,-9 2.592,-2.484 6.191,-4.968 9.973,-4.968 3.707,-0.036 7.559,1.62 11.951,4.968 -5.76,-0.576 -10.008,0.144 -13.283,2.016 -3.313,1.979 -5.076,5.076 -5.977,9.288 -1.008,3.924 -1.439,11.34 0.648,14.615 2.088,3.133 8.207,2.916 11.951,4.645 3.68,1.69 6.96,3.52 9.98,5.65 z"
         i:knockout="Off"
         id="path3750"
         inkscape:connector-curvature="0"
         style="fill:#0080ff" />
      <path
         d="m 64.98,169.13 0,6.012 -63.144,0 c 1.764,-0.144 4.248,-0.54 7.308,-1.332 3.168,-0.756 7.344,-1.403 10.98,-3.348 3.528,-2.304 7.164,-5.4 9.648,-9.288 2.268,-3.852 2.592,-9.576 4.32,-13.284 1.548,-3.815 3.06,-6.659 5.652,-8.964 2.628,-2.484 6.12,-4.932 9.936,-5.004 3.708,0.036 7.524,1.656 11.988,5.004 -5.76,-0.54 -10.008,0.072 -13.284,1.98 -3.276,1.979 -5.148,5.076 -6.012,9.288 -0.864,3.924 -1.512,11.34 0.684,14.615 2.088,3.097 8.208,3.961 11.952,4.681 3.672,0.67 6.948,0.6 9.972,-0.37 z"
         i:knockout="Off"
         id="path3752"
         inkscape:connector-curvature="0"
         style="fill:#000080" />
      <path
         d="m 108.18,169.13 0,6.012 -63.144,0 c 1.764,-0.144 4.248,-0.54 7.308,-1.332 3.168,-0.756 7.344,-1.403 10.98,-3.348 3.456,-2.304 7.128,-5.4 9.612,-9.288 2.268,-3.852 2.592,-9.576 4.32,-13.284 1.548,-3.815 3.06,-6.659 5.652,-8.964 2.592,-2.484 6.192,-4.932 9.972,-5.004 3.708,0.036 7.56,1.656 11.952,5.004 -5.76,-0.54 -10.008,0.072 -13.284,1.98 -3.312,1.979 -5.076,5.076 -5.976,9.288 -0.864,3.924 -1.512,11.34 0.684,14.615 2.088,3.097 8.208,3.961 11.952,4.681 3.674,0.67 6.954,0.6 9.974,-0.37 z"
         i:knockout="Off"
         id="path3754"
         inkscape:connector-curvature="0"
         style="fill:#000080" />
      <path
         d="m 152.06,169.13 0,6.012 -63.104,0 c 1.872,-0.144 4.212,-0.54 7.308,-1.332 3.096,-0.756 7.344,-1.403 10.944,-3.348 3.528,-2.304 7.164,-5.4 9.648,-9.288 2.268,-3.852 2.592,-9.576 4.32,-13.284 1.548,-3.815 3.06,-6.659 5.652,-8.964 2.592,-2.484 6.192,-4.932 9.972,-5.004 3.708,0.036 7.56,1.656 11.952,5.004 -5.76,-0.54 -10.008,0.072 -13.284,1.98 -3.312,1.979 -5.076,5.076 -5.976,9.288 -1.008,3.924 -1.44,11.34 0.648,14.615 2.124,3.097 8.244,3.961 11.988,4.681 3.71,0.67 6.87,0.6 9.93,-0.37 z"
         i:knockout="Off"
         id="path3756"
         inkscape:connector-curvature="0"
         style="fill:#000080" />
      <path
         d="m 195.98,169.13 0,6.012 -63.108,0 c 1.872,-0.144 4.212,-0.54 7.308,-1.332 3.096,-0.756 7.344,-1.403 10.944,-3.348 3.528,-2.304 7.164,-5.4 9.648,-9.288 2.268,-3.852 2.592,-9.576 4.32,-13.284 1.548,-3.815 3.06,-6.659 5.652,-8.964 2.592,-2.484 6.192,-4.932 9.972,-5.004 3.708,0.036 7.56,1.656 11.952,5.004 -5.76,-0.54 -10.008,0.072 -13.284,1.98 -3.276,1.979 -5.148,5.076 -6.012,9.288 -0.864,3.924 -1.512,11.34 0.684,14.615 2.088,3.097 8.208,3.961 11.952,4.681 3.68,0.67 6.96,0.6 9.98,-0.37 z"
         i:knockout="Off"
         id="path3758"
         inkscape:connector-curvature="0"
         style="fill:#000080" />
      <path
         d="m 239.9,169.13 0,6.012 -63.14,0 c 1.764,-0.144 4.248,-0.54 7.308,-1.332 3.168,-0.756 7.344,-1.403 10.98,-3.348 3.456,-2.304 7.128,-5.4 9.612,-9.288 2.268,-3.852 2.592,-9.576 4.32,-13.284 1.548,-3.815 3.06,-6.659 5.652,-8.964 2.592,-2.484 6.192,-4.932 9.972,-5.004 3.636,0.036 7.632,1.656 11.988,5.004 -5.688,-0.54 -10.08,0.072 -13.32,1.98 -3.312,1.979 -5.076,5.076 -5.976,9.288 -0.864,3.924 -1.512,11.34 0.684,14.615 2.088,3.097 8.208,3.961 11.952,4.681 3.68,0.67 6.96,0.6 9.98,-0.37 z"
         i:knockout="Off"
         id="path3760"
         inkscape:connector-curvature="0"
         style="fill:#000080" />
      <path
         d="m 283.82,169.13 0,6.012 -63.14,0 c 1.764,-0.144 4.248,-0.54 7.308,-1.332 3.168,-0.756 7.344,-1.403 10.98,-3.348 3.456,-2.304 7.128,-5.4 9.612,-9.288 2.268,-3.852 2.592,-9.576 4.32,-13.284 1.548,-3.815 3.06,-6.659 5.652,-8.964 2.592,-2.484 6.192,-4.932 9.972,-5.004 3.708,0.036 7.56,1.656 11.953,5.004 -5.761,-0.54 -10.009,0.072 -13.285,1.98 -3.312,1.979 -5.076,5.076 -5.976,9.288 -1.008,3.924 -1.44,11.34 0.648,14.615 2.016,3.097 8.28,3.961 11.988,4.681 3.68,0.67 6.96,0.6 9.98,-0.37 z"
         i:knockout="Off"
         id="path3762"
         inkscape:connector-curvature="0"
         style="fill:#000080" />
      <path
         d="m 327.71,169.13 0,6.012 -63.11,0 c 1.872,-0.144 4.212,-0.54 7.308,-1.332 3.096,-0.756 7.344,-1.403 10.944,-3.348 3.527,-2.304 7.164,-5.4 9.648,-9.288 2.268,-3.852 2.592,-9.576 4.32,-13.284 1.547,-3.815 3.059,-6.659 5.652,-8.964 2.592,-2.484 6.191,-4.932 9.971,-5.004 3.709,0.036 7.561,1.656 11.953,5.004 -5.76,-0.54 -10.008,0.072 -13.285,1.98 -3.311,1.979 -5.076,5.076 -5.975,9.288 -1.01,3.924 -1.441,11.34 0.646,14.615 2.088,3.097 8.209,3.961 11.953,4.681 3.69,0.67 6.96,0.6 9.99,-0.37 z"
         i:knockout="Off"
         id="path3764"
         inkscape:connector-curvature="0"
         style="fill:#000080" />
      <path
         d="m 371.63,169.13 0,6.012 -63.143,0 c 1.764,-0.144 4.248,-0.54 7.307,-1.332 3.168,-0.756 7.346,-1.403 10.98,-3.348 3.529,-2.304 7.164,-5.4 9.648,-9.288 2.268,-3.852 2.592,-9.576 4.32,-13.284 1.584,-3.815 2.951,-6.659 5.615,-8.964 2.592,-2.484 6.191,-4.932 9.973,-5.004 3.635,0.036 7.631,1.656 11.988,5.004 -5.689,-0.54 -10.08,0.072 -13.32,1.98 -3.313,1.979 -5.076,5.076 -5.977,9.288 -0.863,3.924 -1.512,11.34 0.684,14.615 2.088,3.097 8.209,3.961 11.953,4.681 3.68,0.67 6.95,0.6 9.98,-0.37 z"
         i:knockout="Off"
         id="path3766"
         inkscape:connector-curvature="0"
         style="fill:#000080" />
      <path
         d="m 415.55,169.13 0,6.012 -63.143,0 c 1.764,-0.144 4.248,-0.54 7.307,-1.332 3.168,-0.756 7.346,-1.403 10.98,-3.348 3.457,-2.304 7.129,-5.4 9.613,-9.288 2.268,-3.852 2.592,-9.576 4.318,-13.284 1.549,-3.815 3.061,-6.659 5.652,-8.964 2.592,-2.484 6.193,-4.932 9.973,-5.004 3.707,0.036 7.561,1.656 11.951,5.004 -5.76,-0.54 -10.008,0.072 -13.283,1.98 -3.313,1.979 -5.076,5.076 -5.977,9.288 -1.008,3.924 -1.439,11.34 0.648,14.615 2.016,3.097 8.279,3.961 11.988,4.681 3.67,0.67 6.94,0.6 9.97,-0.37 z"
         i:knockout="Off"
         id="path3768"
         inkscape:connector-curvature="0"
         style="fill:#000080" />
      <path
         d="m 459.43,169.13 0,6.012 -63.107,0 c 1.871,-0.144 4.211,-0.54 7.307,-1.332 3.098,-0.756 7.346,-1.403 10.945,-3.348 3.527,-2.304 7.164,-5.4 9.648,-9.288 2.268,-3.852 2.592,-9.576 4.318,-13.284 1.549,-3.815 3.061,-6.659 5.652,-8.964 2.592,-2.484 6.193,-4.932 9.973,-5.004 3.707,0.036 7.561,1.656 11.951,5.004 -5.76,-0.54 -10.008,0.072 -13.283,1.98 -3.313,1.979 -5.076,5.076 -5.977,9.288 -1.008,3.924 -1.439,11.34 0.648,14.615 2.088,3.097 8.209,3.961 11.951,4.681 3.67,0.67 6.95,0.6 9.97,-0.37 z"
         i:knockout="Off"
         id="path3770"
         inkscape:connector-curvature="0"
         style="fill:#000080" />
      <path
         d="m 503.35,169.13 0,6.012 -63.145,0 c 1.766,-0.144 4.248,-0.54 7.309,-1.332 3.168,-0.756 7.344,-1.403 10.98,-3.348 3.527,-2.304 7.164,-5.4 9.648,-9.288 2.268,-3.852 2.592,-9.576 4.318,-13.284 1.584,-3.815 2.953,-6.659 5.617,-8.964 2.592,-2.484 6.191,-4.932 9.973,-5.004 3.635,0.036 7.631,1.656 11.986,5.004 -5.688,-0.54 -10.08,0.072 -13.318,1.98 -3.313,1.979 -5.076,5.076 -5.977,9.288 -0.865,3.924 -1.512,11.34 0.684,14.615 2.088,3.097 8.209,3.961 11.951,4.681 3.68,0.67 6.96,0.6 9.98,-0.37 z"
         i:knockout="Off"
         id="path3772"
         inkscape:connector-curvature="0"
         style="fill:#000080" />
      <path
         d="m 547.27,175.14 -63.145,0 c 1.766,-0.144 4.248,-0.54 7.309,-1.332 3.168,-0.756 7.344,-1.403 10.98,-3.348 3.455,-2.304 7.127,-5.4 9.611,-9.288 2.268,-3.852 2.592,-9.576 4.32,-13.284 1.549,-3.815 3.061,-6.659 5.652,-8.964 2.592,-2.484 6.191,-4.932 9.973,-5.004 3.707,0.036 7.559,1.656 11.951,5.004 -5.76,-0.54 -10.008,0.072 -13.283,1.98 -3.313,1.979 -5.076,5.076 -5.977,9.288 -1.008,3.924 -1.439,11.34 0.648,14.615 2.016,3.097 8.279,2.988 11.986,4.681 3.68,1.64 6.96,3.62 9.98,5.64 z"
         i:knockout="Off"
         id="path3774"
         inkscape:connector-curvature="0"
         style="fill:#000080" />
      <path
         d="m 69.588,171 0,5.976 -63.144,0 c 1.764,-0.071 4.248,-0.647 7.308,-1.331 3.168,-0.792 7.344,-1.297 10.98,-3.313 3.528,-2.268 7.164,-5.472 9.648,-9.324 2.268,-3.852 2.592,-9.576 4.32,-13.284 1.548,-3.815 3.06,-6.659 5.652,-8.964 2.628,-2.484 6.12,-4.932 9.936,-5.004 3.708,0.036 7.524,1.656 11.988,5.004 -5.76,-0.54 -10.008,0.072 -13.284,1.98 -3.276,1.944 -5.148,5.184 -6.012,9.324 -0.864,3.924 -1.512,11.34 0.684,14.615 2.088,3.133 8.208,3.889 11.952,4.645 3.672,0.67 6.948,0.56 9.972,-0.34 z"
         i:knockout="Off"
         id="path3776"
         inkscape:connector-curvature="0"
         style="fill:#008080" />
      <path
         d="m 112.79,171 0,5.976 -63.146,0 c 1.764,-0.071 4.248,-0.647 7.308,-1.331 3.168,-0.792 7.344,-1.297 10.98,-3.313 3.528,-2.268 7.164,-5.472 9.648,-9.324 2.268,-3.852 2.628,-9.576 4.284,-13.284 1.548,-3.815 3.06,-6.659 5.652,-8.964 2.592,-2.484 6.192,-4.932 9.972,-5.004 3.636,0.036 7.632,1.656 11.988,5.004 -5.688,-0.54 -10.08,0.072 -13.32,1.98 -3.312,1.944 -5.076,5.184 -5.976,9.324 -0.864,3.924 -1.512,11.34 0.684,14.615 2.088,3.133 8.208,3.889 11.952,4.645 3.67,0.67 6.94,0.56 9.97,-0.34 z"
         i:knockout="Off"
         id="path3778"
         inkscape:connector-curvature="0"
         style="fill:#008080" />
      <path
         d="m 156.67,171 0,5.976 -63.106,0 c 1.764,-0.071 4.248,-0.647 7.308,-1.331 3.168,-0.792 7.344,-1.297 10.98,-3.313 3.456,-2.268 7.128,-5.472 9.612,-9.324 2.268,-3.852 2.592,-9.576 4.32,-13.284 1.548,-3.815 3.06,-6.659 5.652,-8.964 2.592,-2.484 6.192,-4.932 9.972,-5.004 3.708,0.036 7.56,1.656 11.952,5.004 -5.76,-0.54 -10.008,0.072 -13.284,1.98 -3.312,1.944 -5.076,5.184 -5.976,9.324 -1.008,3.924 -1.44,11.34 0.648,14.615 2.124,3.133 8.244,3.889 11.988,4.645 3.71,0.67 6.88,0.56 9.94,-0.34 z"
         i:knockout="Off"
         id="path3780"
         inkscape:connector-curvature="0"
         style="fill:#008080" />
      <path
         d="m 200.59,171 0,5.976 -63.108,0 c 1.872,-0.071 4.212,-0.647 7.308,-1.331 3.096,-0.792 7.344,-1.297 10.944,-3.313 3.528,-2.268 7.164,-5.472 9.648,-9.324 2.268,-3.852 2.592,-9.576 4.32,-13.284 1.548,-3.815 3.06,-6.659 5.652,-8.964 2.592,-2.484 6.192,-4.932 9.972,-5.004 3.708,0.036 7.56,1.656 11.952,5.004 -5.76,-0.54 -10.008,0.072 -13.284,1.98 -3.312,1.944 -5.076,5.184 -5.976,9.324 -1.008,3.924 -1.44,11.34 0.648,14.615 2.088,3.133 8.208,3.889 11.952,4.645 3.68,0.67 6.96,0.56 9.98,-0.34 z"
         i:knockout="Off"
         id="path3782"
         inkscape:connector-curvature="0"
         style="fill:#008080" />
      <path
         d="m 244.51,171 0,5.976 -63.144,0 c 1.764,-0.071 4.248,-0.647 7.308,-1.331 3.168,-0.792 7.344,-1.297 10.98,-3.313 3.528,-2.268 7.164,-5.472 9.648,-9.324 2.268,-3.852 2.592,-9.576 4.32,-13.284 1.584,-3.815 2.952,-6.659 5.616,-8.964 2.592,-2.484 6.192,-4.932 9.972,-5.004 3.636,0.036 7.632,1.656 11.988,5.004 -5.688,-0.54 -10.08,0.072 -13.32,1.98 -3.312,1.944 -5.076,5.184 -5.976,9.324 -0.864,3.924 -1.512,11.34 0.684,14.615 2.088,3.133 8.208,3.889 11.952,4.645 3.67,0.67 6.95,0.56 9.97,-0.34 z"
         i:knockout="Off"
         id="path3784"
         inkscape:connector-curvature="0"
         style="fill:#008080" />
      <path
         d="m 288.43,171 0,5.976 -63.144,0 c 1.764,-0.071 4.248,-0.647 7.308,-1.331 3.168,-0.792 7.344,-1.297 10.98,-3.313 3.456,-2.268 7.128,-5.472 9.612,-9.324 2.268,-3.852 2.592,-9.576 4.32,-13.284 1.548,-3.815 3.06,-6.659 5.652,-8.964 2.592,-2.484 6.192,-4.932 9.972,-5.004 3.708,0.036 7.56,1.656 11.952,5.004 -5.76,-0.54 -10.008,0.072 -13.284,1.98 -3.312,1.944 -5.076,5.184 -5.976,9.324 -1.008,3.924 -1.44,11.34 0.648,14.615 2.016,3.133 8.28,3.889 11.987,4.645 3.67,0.67 6.95,0.56 9.97,-0.34 z"
         i:knockout="Off"
         id="path3786"
         inkscape:connector-curvature="0"
         style="fill:#008080" />
      <path
         d="m 332.32,171 0,5.976 -63.108,0 c 1.872,-0.071 4.212,-0.647 7.308,-1.331 3.096,-0.792 7.344,-1.297 10.943,-3.313 3.529,-2.268 7.164,-5.472 9.648,-9.324 2.268,-3.852 2.592,-9.576 4.32,-13.284 1.549,-3.815 3.061,-6.659 5.652,-8.964 2.592,-2.484 6.191,-4.932 9.973,-5.004 3.707,0.036 7.559,1.656 11.951,5.004 -5.76,-0.54 -10.008,0.072 -13.283,1.98 -3.313,1.944 -5.076,5.184 -5.977,9.324 -1.008,3.924 -1.439,11.34 0.648,14.615 2.088,3.133 8.207,3.889 11.951,4.645 3.68,0.67 6.95,0.56 9.98,-0.34 z"
         i:knockout="Off"
         id="path3788"
         inkscape:connector-curvature="0"
         style="fill:#008080" />
      <path
         d="m 376.24,171 0,5.976 -63.145,0 c 1.764,-0.071 4.248,-0.647 7.309,-1.331 3.168,-0.792 7.344,-1.297 10.979,-3.313 3.529,-2.268 7.164,-5.472 9.648,-9.324 2.268,-3.852 2.592,-9.576 4.32,-13.284 1.584,-3.815 2.953,-6.659 5.615,-8.964 2.594,-2.484 6.193,-4.932 9.973,-5.004 3.637,0.036 7.633,1.656 11.988,5.004 -5.688,-0.54 -10.08,0.072 -13.32,1.98 -3.313,1.944 -5.076,5.184 -5.977,9.324 -0.863,3.924 -1.512,11.34 0.686,14.615 2.088,3.133 8.207,3.889 11.951,4.645 3.66,0.67 6.93,0.56 9.96,-0.34 z"
         i:knockout="Off"
         id="path3790"
         inkscape:connector-curvature="0"
         style="fill:#008080" />
      <path
         d="m 420.16,171 0,5.976 -63.145,0 c 1.764,-0.071 4.248,-0.647 7.309,-1.331 3.168,-0.792 7.344,-1.297 10.98,-3.313 3.455,-2.268 7.127,-5.472 9.611,-9.324 2.268,-3.852 2.592,-9.576 4.32,-13.284 1.547,-3.815 3.059,-6.659 5.652,-8.964 2.592,-2.484 6.191,-4.932 9.971,-5.004 3.709,0.036 7.561,1.656 11.953,5.004 -5.762,-0.54 -10.008,0.072 -13.285,1.98 -3.313,1.944 -5.076,5.184 -5.977,9.324 -1.008,3.924 -1.439,11.34 0.648,14.615 2.016,3.133 8.281,3.889 11.988,4.645 3.68,0.67 6.95,0.56 9.98,-0.34 z"
         i:knockout="Off"
         id="path3792"
         inkscape:connector-curvature="0"
         style="fill:#008080" />
      <path
         d="m 464.04,171 0,5.976 -63.107,0 c 1.873,-0.071 4.213,-0.647 7.309,-1.331 3.096,-0.792 7.344,-1.297 10.943,-3.313 3.527,-2.268 7.164,-5.472 9.648,-9.324 2.268,-3.852 2.592,-9.576 4.32,-13.284 1.547,-3.815 3.059,-6.659 5.652,-8.964 2.592,-2.484 6.191,-4.932 9.971,-5.004 3.709,0.036 7.561,1.656 11.953,5.004 -5.76,-0.54 -10.008,0.072 -13.285,1.98 -3.313,1.944 -5.076,5.184 -5.975,9.324 -1.01,3.924 -1.441,11.34 0.646,14.615 2.088,3.133 8.209,3.889 11.953,4.645 3.68,0.67 6.96,0.56 9.98,-0.34 z"
         i:knockout="Off"
         id="path3794"
         inkscape:connector-curvature="0"
         style="fill:#008080" />
      <path
         d="m 507.96,171 0,5.976 -63.143,0 c 1.764,-0.071 4.248,-0.647 7.307,-1.331 3.168,-0.792 7.346,-1.297 10.98,-3.313 3.527,-2.268 7.164,-5.472 9.648,-9.324 2.268,-3.852 2.592,-9.576 4.32,-13.284 1.547,-3.815 3.059,-6.659 5.652,-8.964 2.627,-2.484 6.119,-4.932 9.936,-5.004 3.707,0.036 7.523,1.656 11.988,5.004 -5.689,-0.54 -10.08,0.072 -13.32,1.98 -3.313,1.944 -5.076,5.184 -5.977,9.324 -0.863,3.924 -1.512,11.34 0.684,14.615 2.088,3.133 8.209,3.889 11.953,4.645 3.67,0.67 6.95,0.56 9.97,-0.34 z"
         i:knockout="Off"
         id="path3796"
         inkscape:connector-curvature="0"
         style="fill:#008080" />
      <path
         d="m 551.88,176.98 -63.143,0 c 1.764,-0.071 4.248,-0.647 7.307,-1.331 3.168,-0.792 7.346,-1.297 10.98,-3.313 3.457,-2.268 7.129,-5.472 9.613,-9.324 2.268,-3.852 2.592,-9.576 4.318,-13.284 1.549,-3.815 3.061,-6.659 5.652,-8.964 2.592,-2.484 6.191,-4.932 9.973,-5.004 3.707,0.036 7.561,1.656 11.951,5.004 -5.76,-0.54 -10.008,0.072 -13.283,1.98 -3.313,1.944 -5.076,5.184 -5.977,9.324 -0.863,3.924 -1.512,11.34 0.684,14.615 2.088,3.133 8.209,2.916 11.953,4.645 3.68,1.68 6.96,3.51 9.98,5.64 z"
         i:knockout="Off"
         id="path3798"
         inkscape:connector-curvature="0"
         style="fill:#008080" />
      <path
         d="m 10.116,176.29 c 3.672,0.684 5.544,3.636 5.616,9.396 -0.072,5.615 -11.484,21.384 -5.472,24.407 6.156,2.88 40.5,-13.14 41.508,-6.695 0.504,6.552 -46.008,40.536 -36.648,45.18 9.828,4.32 76.932,-23.148 93.708,-18.396 16.272,4.932 -25.092,45.396 4.5,47.123 30.132,1.404 137.66,-37.367 172.76,-38.123 34.416,-0.612 10.367,36.071 33.66,33.659 23.543,-2.88 86.76,-48.132 105.48,-49.392 18.215,-0.972 -14.365,42.084 4.463,42.66 19.26,0.216 92.16,-31.788 108.86,-40.752 16.199,-8.929 -13.861,-4.824 -11.592,-12.816 2.23,-8.208 10.439,-19.836 24.91,-35.568 l -541.75,-0.68 z"
         i:knockout="Off"
         id="path3800"
         inkscape:connector-curvature="0"
         style="fill:#80c2ff" />
      <path
         d="m 396.65,128.74 c -4.428,-1.08 -8.568,-2.628 -12.277,-4.788 -3.779,-2.268 -7.451,-5.832 -10.188,-8.172 -2.844,-2.34 -4.176,-5.148 -6.371,-5.652 -2.305,-0.612 -4.465,-1.152 -7.057,2.268 -2.771,3.42 -6.336,11.736 -8.604,18.144 -2.268,6.264 -4.213,12.24 -4.32,19.296 -0.145,6.984 -0.037,15.66 3.637,22.284 3.635,6.588 11.158,13.104 18.143,17.028 7.02,3.743 12.025,4.607 23.184,5.651 10.945,0.9 30.926,0.828 42.445,0.468 11.447,-0.432 18.684,0.54 26.135,-2.483 7.346,-3.096 13.824,-10.225 17.93,-15.696 3.994,-5.616 5.867,-11.664 5.902,-17.46 -0.215,-5.976 -3.131,-12.78 -6.371,-17.496 -3.275,-4.788 -9.828,-7.632 -12.709,-10.908 -2.951,-3.348 -4.607,-5.796 -4.535,-9.288 0.072,-3.708 1.619,-7.74 4.787,-12.492 l 0,-20.448 c -0.467,-0.972 -1.512,-2.16 -3.131,-3.852 -1.656,-1.836 -2.953,-3.924 -6.66,-6.12 -3.852,-2.088 -10.439,-5.508 -15.877,-6.372 -5.615,-1.044 -11.34,-0.864 -16.596,0.684 -5.256,1.548 -10.943,4.932 -14.291,8.64 -3.313,3.6 -4.932,9 -5.688,13.14 -0.865,4.104 -0.541,7.344 0.684,11.376 1.188,3.96 4.104,9.108 6.371,12.24 2.16,2.916 4.969,4.14 6.336,5.904 1.297,1.836 1.801,3.384 1.369,4.788 -0.686,1.152 -2.27,2.52 -4.752,2.7 -2.592,0.072 -7.021,-1.224 -9.938,-1.8 -2.92,-0.54 -5.44,-1.12 -7.56,-1.58 z"
         i:knockout="Off"
         id="path3802"
         inkscape:connector-curvature="0"
         style="fill:#f2c802" />
      <path
         d="m 353.77,128.59 c 0.072,-1.908 2.953,-7.74 4.465,-10.548 1.404,-2.916 2.699,-5.328 4.32,-6.408 1.475,-1.224 2.555,-1.548 5.184,0 2.627,1.62 6.443,6.48 10.188,9.324 3.492,2.772 6.588,4.896 11.232,6.912 4.572,1.872 14.328,3.42 16.236,4.5 1.691,1.08 -1.766,1.98 -5.365,1.728 -3.635,-0.432 -11.771,-3.564 -16.236,-3.96 -4.57,-0.432 -7.92,2.52 -10.871,1.368 -2.988,-1.332 -5.111,-7.092 -6.912,-8.82 -1.836,-1.872 -2.844,-2.52 -4.141,-1.548 -1.439,1.044 -2.771,6.408 -4.139,7.776 -1.41,1.23 -4.08,1.45 -3.97,-0.32 z"
         i:knockout="Off"
         id="path3804"
         inkscape:connector-curvature="0"
         style="fill:#d8a202" />
      <path
         d="m 384.84,139.97 c 1.367,-0.216 11.447,2.34 19.691,3.637 8.316,1.151 22.141,1.907 29.521,3.636 7.164,1.728 11.016,3.132 13.643,6.731 2.557,3.456 3.096,9.9 1.908,14.328 -1.404,4.32 -4.607,9.108 -9.324,11.736 -4.824,2.52 -11.088,3.852 -18.648,3.456 -7.668,-0.648 -24.084,-5.364 -26.063,-6.229 -1.836,-0.72 8.531,1.477 15.012,1.584 6.408,-0.071 17.748,0.828 23.328,-1.584 5.471,-2.628 8.963,-9.468 9.648,-13.283 0.574,-3.889 -1.693,-7.057 -5.689,-9.505 -4.066,-2.52 -11.375,-3.852 -18.324,-5.363 -7.199,-1.548 -17.566,-2.736 -23.471,-4.141 -5.95,-1.61 -12.61,-4.85 -11.24,-5.03 z"
         i:knockout="Off"
         id="path3806"
         inkscape:connector-curvature="0"
         style="fill:#d8a202" />
      <path
         d="m 433.73,72.864 c 3.672,0.036 7.344,0.432 10.871,1.584 3.6,1.116 6.877,2.268 10.369,4.824 3.383,2.412 7.955,6.336 9.684,9.684 1.547,3.312 -0.072,6.66 0,10.188 0.035,3.492 0.143,6.66 0.324,10.188 -1.656,1.62 -2.916,3.636 -3.781,6.048 -0.971,2.376 -1.764,5.652 -1.404,8.28 0.324,2.556 0.938,4.032 3.637,7.056 2.664,2.88 12.457,9.252 12.42,10.368 -0.18,0.9 -9.504,-1.512 -13.104,-4.32 -3.672,-2.988 -5.725,-10.116 -8.641,-12.78 -3.061,-2.592 -9.035,-0.072 -9.324,-2.736 -0.252,-2.844 5.76,-8.928 7.777,-13.824 1.871,-5.04 3.996,-11.484 3.455,-15.732 -0.721,-4.248 -4.645,-8.244 -7.596,-9.648 -3.096,-1.476 -6.768,1.26 -10.188,0.864 -3.492,-0.54 -9.252,-1.944 -10.045,-3.636 -0.75,-1.734 1.05,-3.822 5.55,-6.414 z"
         i:knockout="Off"
         id="path3808"
         inkscape:connector-curvature="0"
         style="fill:#d8a202" />
      <path
         d="m 463.79,97.056 c -0.215,-2.196 -1.512,-4.824 -1.402,-6.372 -0.037,-1.656 0.432,-2.736 1.547,-2.952 1.115,-0.36 3.205,1.08 5.004,1.548 1.621,0.432 3.023,1.728 5.041,1.548 1.943,-0.288 5.398,-2.916 7.055,-2.736 1.549,0.216 2.701,1.764 2.773,3.96 0.107,2.16 0.936,5.256 -2.232,8.46 -3.385,3.096 -14.076,9.396 -17.1,10.008 -3.061,0.432 -0.756,-5.076 -0.865,-7.236 -0.12,-2.26 0.31,-4.208 0.17,-6.224 z"
         i:knockout="Off"
         id="path3810"
         inkscape:connector-curvature="0"
         style="fill:#cd3204" />
      <path
         d="m 469.3,93.096 c 1.152,-0.36 2.557,0.288 4.5,0 1.656,-0.504 4.824,-2.88 6.049,-2.412 1.225,0.468 2.916,2.556 1.188,5.148 -1.908,2.52 -9.936,8.604 -12.42,10.044 -2.627,1.224 -3.383,-0.756 -3.096,-1.908 0.289,-1.26 3.996,-3.528 4.465,-5.004 0.18,-1.62 -2.449,-2.988 -2.592,-3.96 -0.04,-0.974 0.65,-1.658 1.91,-1.91 z"
         i:knockout="Off"
         id="path3812"
         inkscape:connector-curvature="0"
         style="fill:#da4100" />
      <path
         d="m 445.74,83.26 c 3.756,0 6.803,3.29 6.803,7.344 0,4.054 -3.047,7.344 -6.803,7.344 -3.756,0 -6.805,-3.29 -6.805,-7.344 0,-4.054 3.04,-7.344 6.8,-7.344"
         i:knockout="Off"
         id="path3814"
         inkscape:connector-curvature="0"
         style="fill:#ffffff" />
      <path
         i:knockout="Off"
         d="m 446.34,85.204 c 2.205,0 3.996,1.936 3.996,4.32 0,2.385 -1.791,4.32 -3.996,4.32 -2.205,0 -3.996,-1.936 -3.996,-4.32 0,-2.384 1.8,-4.32 4,-4.32"
         id="path3816"
         inkscape:connector-curvature="0" />
      <path
         d="m 446.94,88.336 c 0.795,0 1.439,0.694 1.439,1.548 0,0.854 -0.645,1.548 -1.439,1.548 -0.794,0 -1.439,-0.693 -1.439,-1.548 0,-0.855 0.64,-1.548 1.44,-1.548"
         i:knockout="Off"
         id="path3818"
         inkscape:connector-curvature="0"
         style="fill:#ffffff" />
      <path
         d="m 415.26,87.048 c -2.881,1.764 -3.889,5.472 -3.996,8.784 -0.287,3.168 0.037,10.332 2.771,10.368 2.736,-0.18 11.018,-7.416 13.465,-10.872 2.305,-3.456 2.664,-8.532 0.684,-9.828 -2.16,-1.404 -10.08,-0.288 -12.92,1.548 z"
         i:knockout="Off"
         id="path3820"
         inkscape:connector-curvature="0"
         style="fill:#ffe42e" />
      <path
         d="m 420.08,122.36 c 1.404,-0.036 4.535,2.232 8.279,2.916 3.709,0.576 12.42,-0.108 13.645,0.864 0.9,1.008 -3.061,2.88 -7.416,4.5 -4.393,1.404 -15.912,4.032 -18.324,4.14 -2.305,-0.108 3.385,-2.268 4.141,-3.96 0.576,-1.764 -0.469,-4.464 -0.504,-5.868 0,-1.47 -1.36,-2.66 0.18,-2.59 z"
         i:knockout="Off"
         id="path3822"
         inkscape:connector-curvature="0"
         style="fill:#ffe42e" />
      <path
         d="m 357.73,141.88 c -0.541,1.332 1.836,9.576 3.814,12.78 1.908,3.24 6.121,6.336 7.922,6.228 1.799,-0.396 3.311,-5.544 2.592,-7.956 -1.008,-2.412 -5.365,-4.823 -7.777,-6.552 -2.51,-1.84 -6.03,-5.98 -6.54,-4.5 z"
         i:knockout="Off"
         id="path3824"
         inkscape:connector-curvature="0"
         style="fill:#ffe42e" />
      <path
         d="m 401.08,150.84 c -0.613,-0.864 -4.5,-0.432 -7.775,-1.188 -3.385,-0.9 -9.506,-3.96 -11.557,-3.637 -2.053,0.253 -3.023,3.889 -0.541,5.364 2.34,1.404 11.701,3.132 15.049,3.096 3.28,-0.14 5.26,-2.87 4.83,-3.63 z"
         i:knockout="Off"
         id="path3826"
         inkscape:connector-curvature="0"
         style="fill:#ffe42e" />
      <path
         d="m 399.38,158.4 c -0.576,-0.648 -3.781,0 -6.553,-0.288 -2.844,-0.504 -8.279,-2.305 -9.936,-1.908 -1.621,0.504 -2.197,3.384 0.072,4.464 2.123,0.9 9.936,1.477 12.742,1.188 2.71,-0.53 4.12,-2.8 3.68,-3.45 z"
         i:knockout="Off"
         id="path3828"
         inkscape:connector-curvature="0"
         style="fill:#ffe42e" />
      <path
         d="m 400.32,166.54 c -0.504,-0.612 -3.709,0.036 -6.264,-0.145 -2.701,-0.359 -7.992,-2.159 -9.504,-1.655 -1.584,0.323 -1.908,3.42 0.143,4.284 2.088,0.792 9.432,1.26 12.168,0.863 2.62,-0.43 3.77,-2.84 3.45,-3.34 z"
         i:knockout="Off"
         id="path3830"
         inkscape:connector-curvature="0"
         style="fill:#ffe42e" />
      <path
         d="m 449.1,193.5 c 2.771,-0.324 6.732,-0.684 10.369,-2.052 3.527,-1.512 7.416,-3.744 10.691,-6.408 3.168,-2.808 5.977,-5.976 8.279,-9.648 2.197,-3.707 4.033,-7.955 4.68,-11.916 0.541,-3.995 0.072,-8.64 -1.402,-11.411 -1.514,-2.7 -4.682,-3.996 -7.418,-5.005 -2.844,-1.188 -9.035,-3.384 -9.143,-1.728 -0.072,1.584 7.848,7.848 8.639,11.412 0.541,3.456 -4.391,6.479 -4.68,9.647 -0.287,3.024 4.32,5.832 3.133,9 -1.439,3.169 -6.695,8.316 -10.908,10.009 -4.32,1.548 -12.275,-0.828 -14.148,-0.181 -1.799,0.612 3.529,3.024 2.953,4.32 -0.828,1.224 -7.092,2.592 -7.273,3.276 -0.21,0.57 3.39,0.93 6.23,0.68 z"
         i:knockout="Off"
         id="path3832"
         inkscape:connector-curvature="0"
         style="fill:#d8a202" />
      <path
         d="m 225.79,169.74 c -2.664,-0.648 -5.04,-1.548 -7.272,-2.844 -2.376,-1.368 -4.392,-3.492 -6.048,-4.86 -1.728,-1.477 -2.484,-3.024 -3.78,-3.384 -1.44,-0.36 -2.664,-0.685 -4.212,1.368 -1.656,2.052 -3.816,6.947 -5.112,10.8 -1.404,3.636 -2.484,7.271 -2.556,11.448 -0.216,4.176 0,9.18 2.16,13.212 2.16,3.888 6.588,7.812 10.8,10.115 4.068,2.232 7.164,2.664 13.752,3.385 6.552,0.54 18.288,0.432 25.2,0.252 6.732,-0.181 11.124,0.252 15.516,-1.477 4.392,-1.943 8.172,-6.012 10.656,-9.288 2.413,-3.384 3.456,-6.947 3.528,-10.403 -0.035,-3.601 -1.944,-7.524 -3.78,-10.368 -2.016,-2.772 -5.832,-4.608 -7.56,-6.48 -1.728,-2.088 -2.808,-3.384 -2.7,-5.544 0,-2.231 0.9,-4.572 2.844,-7.416 l 0,-12.132 c -0.252,-0.504 -0.864,-1.404 -1.836,-2.304 -1.008,-1.116 -1.728,-2.376 -3.96,-3.637 -2.376,-1.332 -6.228,-3.24 -9.468,-3.779 -3.24,-0.576 -6.84,-0.576 -9.828,0.396 -3.24,0.936 -6.444,2.879 -8.496,5.148 -2.016,2.196 -2.916,5.256 -3.384,7.812 -0.54,2.448 -0.36,4.32 0.396,6.732 0.684,2.304 2.448,5.436 3.78,7.308 1.296,1.692 2.88,2.484 3.78,3.492 0.756,0.972 1.08,2.052 0.828,2.844 -0.36,0.721 -1.44,1.44 -2.844,1.62 -1.44,-0.071 -4.284,-0.72 -5.904,-1.116 -1.74,-0.35 -3.28,-0.6 -4.51,-0.89 z"
         i:knockout="Off"
         id="path3834"
         inkscape:connector-curvature="0"
         style="fill:#f2c802" />
      <path
         d="m 200.34,169.63 c 0,-1.188 1.764,-4.572 2.664,-6.264 0.828,-1.764 1.584,-3.204 2.556,-3.78 0.9,-0.684 1.512,-1.008 3.096,0 1.512,0.9 3.852,3.853 6.048,5.544 2.088,1.656 3.888,2.88 6.66,4.104 2.7,1.08 8.46,2.016 9.648,2.664 1.008,0.575 -1.08,1.188 -3.204,1.008 -2.268,-0.216 -6.912,-2.16 -9.612,-2.34 -2.664,-0.252 -4.824,1.439 -6.48,0.792 -1.836,-0.792 -3.024,-4.248 -4.104,-5.221 -1.224,-1.08 -1.584,-1.619 -2.448,-0.936 -0.864,0.54 -1.692,3.888 -2.484,4.644 -0.92,0.74 -2.4,0.81 -2.36,-0.2 z"
         i:knockout="Off"
         id="path3836"
         inkscape:connector-curvature="0"
         style="fill:#d8a202" />
      <path
         d="m 218.81,176.4 c 0.9,-0.181 6.696,1.368 11.7,2.16 4.896,0.575 13.14,1.151 17.532,2.159 4.248,0.973 6.444,1.836 8.1,3.996 1.476,2.124 1.8,5.796 1.116,8.496 -0.9,2.521 -2.736,5.4 -5.508,6.984 -2.952,1.512 -6.552,2.195 -11.088,2.052 -4.5,-0.288 -14.4,-3.276 -15.516,-3.672 -1.08,-0.54 5.004,0.864 8.928,0.899 3.78,-0.035 10.476,0.505 13.86,-0.899 3.24,-1.512 5.292,-5.724 5.76,-7.92 0.36,-2.34 -1.044,-4.176 -3.384,-5.652 -2.448,-1.548 -6.768,-2.231 -10.872,-3.168 -4.176,-0.936 -10.584,-1.656 -13.968,-2.448 -3.49,-1.01 -7.53,-2.88 -6.66,-2.99 z"
         i:knockout="Off"
         id="path3838"
         inkscape:connector-curvature="0"
         style="fill:#d8a202" />
      <path
         d="m 247.82,136.55 c 2.196,0.036 4.356,0.216 6.48,0.936 2.088,0.432 4.14,1.512 6.156,2.844 1.872,1.404 4.752,3.78 5.724,5.76 0.9,1.944 -0.072,3.96 0,6.048 0,1.98 0.072,3.996 0.216,6.049 -1.044,0.972 -1.8,2.123 -2.268,3.6 -0.54,1.512 -1.08,3.204 -0.792,4.932 0.216,1.477 0.468,2.412 2.124,4.212 1.584,1.765 7.344,5.437 7.416,6.156 -0.072,0.468 -5.724,-0.899 -7.812,-2.592 -2.196,-1.8 -3.384,-6.048 -5.112,-7.596 -1.908,-1.584 -5.328,-0.036 -5.544,-1.62 -0.144,-1.729 3.384,-5.292 4.608,-8.208 1.152,-3.024 2.304,-6.84 2.052,-9.36 -0.576,-2.52 -2.736,-4.932 -4.536,-5.724 -1.764,-0.937 -4.104,0.756 -6.048,0.504 -2.052,-0.433 -5.508,-1.152 -5.94,-2.16 -0.432,-1.008 0.61,-2.27 3.27,-3.78 z"
         i:knockout="Off"
         id="path3840"
         inkscape:connector-curvature="0"
         style="fill:#d8a202" />
      <path
         d="m 265.68,150.91 c -0.18,-1.332 -0.828,-2.88 -0.828,-3.816 -0.072,-0.936 0.288,-1.655 0.936,-1.728 0.648,-0.145 1.872,0.54 2.988,0.936 0.864,0.217 1.8,0.973 2.952,0.9 1.224,-0.145 3.096,-1.8 4.212,-1.62 0.9,0.072 1.583,1.044 1.656,2.34 0.072,1.225 0.504,3.132 -1.332,5.04 -2.052,1.729 -8.316,5.652 -10.188,5.94 -1.872,0.216 -0.468,-3.024 -0.504,-4.32 -0.15,-1.4 0.21,-2.48 0.1,-3.67 z"
         i:knockout="Off"
         id="path3842"
         inkscape:connector-curvature="0"
         style="fill:#cd3204" />
      <path
         d="m 268.96,148.54 c 0.612,-0.288 1.548,0.18 2.664,0 1.008,-0.324 2.808,-1.729 3.6,-1.44 0.756,0.252 1.692,1.513 0.72,3.097 -1.188,1.476 -5.868,5.076 -7.38,5.939 -1.512,0.685 -2.124,-0.432 -1.836,-1.116 0.216,-0.756 2.304,-2.124 2.664,-2.987 0.108,-0.973 -1.476,-1.8 -1.548,-2.34 -0.06,-0.58 0.41,-1.01 1.13,-1.15 z"
         i:knockout="Off"
         id="path3844"
         inkscape:connector-curvature="0"
         style="fill:#da4100" />
      <path
         d="m 254.94,142.77 c 2.226,0 4.032,1.951 4.032,4.355 0,2.404 -1.806,4.356 -4.032,4.356 -2.226,0 -4.032,-1.952 -4.032,-4.356 0,-2.404 1.8,-4.35 4.03,-4.35"
         i:knockout="Off"
         id="path3846"
         inkscape:connector-curvature="0"
         style="fill:#ffffff" />
      <path
         i:knockout="Off"
         d="m 255.42,143.97 c 1.312,0 2.376,1.146 2.376,2.557 0,1.41 -1.064,2.556 -2.376,2.556 -1.312,0 -2.376,-1.146 -2.376,-2.556 0,-1.42 1.07,-2.56 2.38,-2.56"
         id="path3848"
         inkscape:connector-curvature="0" />
      <path
         d="m 255.54,145.71 c 0.457,0 0.828,0.419 0.828,0.937 0,0.517 -0.371,0.936 -0.828,0.936 -0.457,0 -0.828,-0.419 -0.828,-0.936 0,-0.52 0.37,-0.94 0.83,-0.94"
         i:knockout="Off"
         id="path3850"
         inkscape:connector-curvature="0"
         style="fill:#ffffff" />
      <path
         d="m 236.84,144.97 c -1.656,0.973 -2.34,3.313 -2.34,5.221 -0.144,1.907 -0.072,6.084 1.62,6.155 1.62,-0.071 6.516,-4.5 8.028,-6.479 1.368,-2.124 1.548,-5.04 0.396,-5.832 -1.3,-0.82 -6.09,-0.14 -7.71,0.94 z"
         i:knockout="Off"
         id="path3852"
         inkscape:connector-curvature="0"
         style="fill:#ffe42e" />
      <path
         d="m 239.72,165.92 c 0.828,-0.036 2.664,1.332 4.932,1.765 2.124,0.359 7.416,-0.072 8.1,0.504 0.54,0.504 -1.908,1.764 -4.428,2.664 -2.664,0.792 -9.432,2.447 -10.872,2.483 -1.476,-0.107 2.124,-1.403 2.484,-2.376 0.288,-1.08 -0.288,-2.664 -0.324,-3.492 -0.03,-0.84 -0.82,-1.63 0.11,-1.53 z"
         i:knockout="Off"
         id="path3854"
         inkscape:connector-curvature="0"
         style="fill:#ffe42e" />
      <path
         d="m 202.68,177.52 c -0.36,0.792 1.044,5.688 2.268,7.597 1.188,1.764 3.6,3.924 4.716,3.708 1.044,-0.252 1.98,-3.313 1.548,-4.716 -0.684,-1.549 -3.096,-2.809 -4.608,-3.925 -1.48,-1.22 -3.71,-3.46 -3.93,-2.66 z"
         i:knockout="Off"
         id="path3856"
         inkscape:connector-curvature="0"
         style="fill:#ffe42e" />
      <path
         d="m 228.46,182.88 c -0.396,-0.432 -2.736,-0.396 -4.644,-0.72 -2.052,-0.54 -5.688,-2.376 -6.876,-2.16 -1.188,0.216 -1.836,2.196 -0.288,3.168 1.44,0.756 6.912,1.836 8.928,1.836 1.87,-0.04 3.2,-1.77 2.88,-2.13 z"
         i:knockout="Off"
         id="path3858"
         inkscape:connector-curvature="0"
         style="fill:#ffe42e" />
      <path
         d="m 227.41,187.34 c -0.36,-0.396 -2.304,-0.036 -3.888,-0.18 -1.764,-0.288 -4.932,-1.404 -5.904,-1.116 -1.008,0.288 -1.26,2.017 0.072,2.664 1.26,0.54 5.868,0.864 7.56,0.685 1.55,-0.27 2.45,-1.75 2.16,-2.04 z"
         i:knockout="Off"
         id="path3860"
         inkscape:connector-curvature="0"
         style="fill:#ffe42e" />
      <path
         d="m 227.99,192.17 c -0.324,-0.36 -2.16,0.036 -3.708,-0.072 -1.62,-0.144 -4.752,-1.403 -5.652,-1.008 -0.972,0.252 -1.224,1.944 0.072,2.557 1.152,0.432 5.652,0.756 7.236,0.54 1.47,-0.33 2.3,-1.7 2.05,-2.02 z"
         i:knockout="Off"
         id="path3862"
         inkscape:connector-curvature="0"
         style="fill:#ffe42e" />
      <path
         d="m 256.97,208.19 c 1.692,-0.036 3.924,-0.576 6.156,-1.225 2.088,-0.864 4.392,-2.268 6.372,-3.779 1.836,-1.62 3.564,-3.637 4.896,-5.761 1.224,-2.16 2.376,-4.788 2.772,-7.056 0.252,-2.376 0.072,-5.184 -0.828,-6.769 -0.936,-1.655 -2.772,-2.376 -4.392,-2.987 -1.764,-0.864 -5.328,-1.908 -5.436,-1.044 0,1.044 4.572,4.5 5.112,6.768 0.288,2.124 -2.628,3.816 -2.772,5.76 -0.144,1.765 2.52,3.492 1.872,5.328 -0.792,1.872 -4.068,4.933 -6.48,5.977 -2.592,0.863 -7.236,-0.469 -8.388,-0.108 -1.188,0.36 2.16,1.729 1.728,2.556 -0.432,0.792 -4.32,1.44 -4.32,1.944 -0.14,0.33 2.02,0.51 3.71,0.4 z"
         i:knockout="Off"
         id="path3864"
         inkscape:connector-curvature="0"
         style="fill:#d8a202" />
      <path
         d="m 299.38,188.03 c -2.807,-0.648 -5.363,-1.692 -7.668,-2.988 -2.482,-1.44 -4.607,-3.636 -6.371,-5.076 -1.656,-1.548 -2.699,-3.204 -3.961,-3.563 -1.439,-0.469 -2.771,-0.685 -4.391,1.439 -1.692,2.124 -4.032,7.38 -5.364,11.34 -1.404,3.78 -2.628,7.74 -2.7,12.024 -0.144,4.356 -0.036,9.684 2.268,13.896 2.304,4.068 6.876,8.208 11.339,10.62 4.213,2.305 7.596,2.88 14.436,3.528 6.912,0.612 19.117,0.432 26.461,0.288 7.129,-0.324 11.592,0.36 16.309,-1.548 4.643,-1.944 8.568,-6.372 11.195,-9.792 2.447,-3.601 3.672,-7.236 3.672,-10.908 -0.145,-3.78 -2.016,-7.884 -3.959,-10.908 -2.053,-2.988 -6.121,-4.788 -7.92,-6.804 -1.836,-2.124 -2.881,-3.601 -2.846,-5.796 0.072,-2.305 0.938,-4.896 2.988,-7.776 l 0,-12.74 c -0.287,-0.611 -0.936,-1.368 -1.943,-2.412 -1.08,-1.079 -1.873,-2.592 -4.176,-3.852 -2.412,-1.296 -6.553,-3.456 -9.9,-3.96 -3.455,-0.684 -7.127,-0.54 -10.332,0.432 -3.313,1.008 -6.84,2.988 -8.928,5.4 -2.125,2.268 -3.023,5.508 -3.527,8.208 -0.469,2.52 -0.469,4.608 0.395,7.092 0.721,2.412 2.557,5.652 3.961,7.632 1.295,1.8 3.131,2.521 3.996,3.672 0.684,1.08 1.188,2.124 0.828,2.988 -0.469,0.756 -1.404,1.548 -2.953,1.692 -1.727,-0.036 -4.32,-0.792 -6.227,-1.152 -1.85,-0.4 -3.36,-0.72 -4.69,-0.97 z"
         i:knockout="Off"
         id="path3866"
         inkscape:connector-curvature="0"
         style="fill:#f2c802" />
      <path
         d="m 272.63,187.92 c 0.036,-1.224 1.836,-4.752 2.772,-6.552 0.864,-1.836 1.62,-3.348 2.7,-3.996 0.936,-0.792 1.549,-0.936 3.24,0 1.549,0.9 4.031,4.14 6.336,5.832 2.195,1.62 4.068,3.096 7.02,4.284 2.881,1.188 8.893,2.124 10.117,2.808 1.008,0.648 -1.08,1.188 -3.35,1.08 -2.375,-0.36 -7.234,-2.16 -10.115,-2.484 -2.771,-0.216 -5.076,1.513 -6.768,0.864 -1.908,-0.864 -3.168,-4.355 -4.32,-5.472 -1.225,-1.152 -1.764,-1.656 -2.592,-0.972 -0.9,0.684 -1.764,3.96 -2.592,4.823 -0.95,0.76 -2.46,0.87 -2.46,-0.21 z"
         i:knockout="Off"
         id="path3868"
         inkscape:connector-curvature="0"
         style="fill:#d8a202" />
      <path
         d="m 292,195.05 c 0.828,-0.252 7.092,1.477 12.275,2.269 5.113,0.611 13.896,1.224 18.432,2.268 4.428,1.008 6.84,1.944 8.496,4.176 1.549,2.088 1.945,6.229 1.189,8.964 -0.865,2.7 -2.846,5.652 -5.797,7.309 -3.023,1.62 -6.947,2.34 -11.629,2.16 -4.859,-0.36 -15.012,-3.42 -16.271,-3.889 -1.043,-0.468 5.184,0.828 9.361,0.973 4.066,-0.072 10.906,0.576 14.543,-0.973 3.385,-1.655 5.58,-5.903 6.049,-8.279 0.287,-2.448 -1.045,-4.429 -3.564,-5.94 -2.592,-1.62 -7.092,-2.412 -11.412,-3.348 -4.465,-0.973 -11.016,-1.729 -14.652,-2.557 -3.83,-1.01 -7.79,-3.02 -7.03,-3.13 z"
         i:knockout="Off"
         id="path3870"
         inkscape:connector-curvature="0"
         style="fill:#d8a202" />
      <path
         d="m 322.49,153.18 c 2.34,-0.035 4.5,0.288 6.768,0.973 2.195,0.54 4.355,1.548 6.48,3.023 2.088,1.44 4.932,3.96 6.047,6.048 1.008,2.089 -0.143,4.104 0,6.336 0,2.089 0.072,4.213 0.217,6.372 -1.08,1.009 -1.873,2.269 -2.377,3.78 -0.576,1.584 -1.188,3.349 -0.863,5.148 0.145,1.548 0.576,2.556 2.268,4.428 1.764,1.872 7.633,5.688 7.74,6.444 -0.215,0.54 -5.904,-0.864 -8.172,-2.664 -2.305,-1.872 -3.637,-6.336 -5.4,-7.992 -1.979,-1.62 -5.688,-0.108 -5.832,-1.729 -0.252,-1.8 3.637,-5.544 4.861,-8.604 1.115,-3.168 2.482,-7.128 2.16,-9.792 -0.541,-2.736 -2.916,-5.076 -4.754,-6.048 -1.906,-0.973 -4.246,0.828 -6.336,0.54 -2.23,-0.36 -5.76,-1.26 -6.264,-2.269 -0.52,-1.08 0.63,-2.42 3.44,-4 z"
         i:knockout="Off"
         id="path3872"
         inkscape:connector-curvature="0"
         style="fill:#d8a202" />
      <path
         d="m 329.94,159.59 c 2.346,0 4.248,2.049 4.248,4.572 0,2.523 -1.902,4.572 -4.248,4.572 -2.344,0 -4.248,-2.049 -4.248,-4.572 0,-2.523 1.91,-4.57 4.25,-4.57"
         i:knockout="Off"
         id="path3874"
         inkscape:connector-curvature="0"
         style="fill:#ffffff" />
      <path
         i:knockout="Off"
         d="m 330.42,161.02 c 1.371,0 2.484,1.193 2.484,2.664 0,1.47 -1.113,2.663 -2.484,2.663 -1.371,0 -2.484,-1.193 -2.484,-2.663 0,-1.47 1.11,-2.66 2.48,-2.66"
         id="path3876"
         inkscape:connector-curvature="0" />
      <path
         d="m 330.66,162.71 c 0.496,0 0.9,0.436 0.9,0.973 0,0.536 -0.404,0.972 -0.9,0.972 -0.498,0 -0.9,-0.436 -0.9,-0.972 0,-0.53 0.4,-0.97 0.9,-0.97"
         i:knockout="Off"
         id="path3878"
         inkscape:connector-curvature="0"
         style="fill:#ffffff" />
      <path
         d="m 310.97,162.04 c -1.766,1.044 -2.449,3.42 -2.484,5.472 -0.145,1.908 -0.072,6.517 1.727,6.48 1.693,-0.145 6.805,-4.681 8.389,-6.804 1.477,-2.232 1.621,-5.293 0.432,-6.12 -1.41,-0.94 -6.27,-0.15 -8.07,0.97 z"
         i:knockout="Off"
         id="path3880"
         inkscape:connector-curvature="0"
         style="fill:#ffe42e" />
      <path
         d="m 313.99,184.07 c 0.791,0.036 2.879,1.296 5.148,1.836 2.34,0.359 7.775,-0.108 8.531,0.54 0.648,0.54 -2.053,1.836 -4.645,2.771 -2.807,0.937 -9.9,2.448 -11.412,2.592 -1.475,-0.107 2.125,-1.403 2.592,-2.483 0.289,-1.116 -0.287,-2.7 -0.322,-3.636 -0.14,-0.9 -0.75,-1.77 0.11,-1.62 z"
         i:knockout="Off"
         id="path3882"
         inkscape:connector-curvature="0"
         style="fill:#ffe42e" />
      <path
         d="m 275.08,196.24 c -0.252,0.899 1.008,5.868 2.375,7.956 1.26,1.979 3.709,3.924 4.969,3.888 1.043,-0.324 2.088,-3.456 1.619,-4.968 -0.611,-1.656 -3.383,-2.88 -4.859,-4.068 -1.63,-1.19 -3.79,-3.75 -4.11,-2.81 z"
         i:knockout="Off"
         id="path3884"
         inkscape:connector-curvature="0"
         style="fill:#ffe42e" />
      <path
         d="m 302.11,201.82 c -0.395,-0.54 -2.844,-0.324 -4.824,-0.756 -2.123,-0.612 -5.975,-2.376 -7.234,-2.232 -1.369,0.288 -1.801,2.232 -0.324,3.312 1.439,0.9 7.307,1.872 9.395,1.944 2.11,-0.18 3.15,-1.76 2.97,-2.26 z"
         i:knockout="Off"
         id="path3886"
         inkscape:connector-curvature="0"
         style="fill:#ffe42e" />
      <path
         d="m 301.07,206.53 c -0.361,-0.396 -2.377,-0.036 -4.105,-0.18 -1.764,-0.36 -5.219,-1.404 -6.191,-1.188 -1.043,0.324 -1.404,2.052 0.037,2.808 1.332,0.612 6.154,0.9 7.955,0.721 1.66,-0.36 2.56,-1.73 2.31,-2.16 z"
         i:knockout="Off"
         id="path3888"
         inkscape:connector-curvature="0"
         style="fill:#ffe42e" />
      <path
         d="m 301.64,211.61 c -0.361,-0.324 -2.305,-0.036 -3.889,-0.108 -1.801,-0.252 -4.896,-1.332 -5.939,-1.008 -1.008,0.288 -1.26,2.016 0.072,2.664 1.223,0.54 5.939,0.72 7.631,0.54 1.63,-0.21 2.39,-1.83 2.13,-2.08 z"
         i:knockout="Off"
         id="path3890"
         inkscape:connector-curvature="0"
         style="fill:#ffe42e" />
      <path
         d="m 332.06,228.42 c 1.691,-0.18 4.176,-0.468 6.479,-1.26 2.088,-0.972 4.682,-2.304 6.66,-3.996 1.98,-1.728 3.709,-3.888 5.186,-6.048 1.26,-2.34 2.555,-5.004 2.916,-7.416 0.322,-2.556 0.035,-5.437 -0.865,-7.128 -1.043,-1.656 -2.916,-2.557 -4.645,-3.097 -1.871,-0.756 -5.578,-2.088 -5.688,-1.079 -0.072,1.044 4.861,4.752 5.365,7.092 0.395,2.16 -2.846,3.996 -2.916,6.048 -0.145,1.836 2.627,3.6 1.943,5.58 -0.863,1.944 -4.141,5.184 -6.768,6.264 -2.773,1.008 -7.668,-0.647 -8.857,-0.107 -1.26,0.323 2.27,1.872 1.836,2.699 -0.539,0.828 -4.355,1.513 -4.5,2.053 -0.03,0.46 1.95,0.49 3.85,0.42 z"
         i:knockout="Off"
         id="path3892"
         inkscape:connector-curvature="0"
         style="fill:#d8a202" />
      <path
         d="m 339.84,168.91 c 0.611,-2.628 0.324,-3.564 2.557,-5.184 2.23,-1.656 8.711,-5.509 9.971,-4.788 1.189,0.792 0.252,3.744 -2.916,9.035 1.729,2.196 2.629,3.889 2.844,5.364 0.072,1.404 -0.719,2.412 -1.836,3.168 -1.188,0.612 -3.49,1.152 -5.111,0.792 -1.729,-0.396 -3.42,-1.62 -5.076,-3.384 0.01,0 -1.03,-2.34 -0.42,-5.01 z"
         i:knockout="Off"
         id="path3894"
         inkscape:connector-curvature="0"
         style="fill:#cd3204" />
      <path
         d="m 348.08,167.54 c 0.863,-0.396 1.188,-1.439 1.656,-2.592 0.432,-1.224 1.799,-3.924 1.188,-4.212 -0.721,-0.36 -3.924,1.548 -5.291,2.412 -1.549,0.756 -2.953,1.728 -3.24,2.376 -0.324,0.611 0.646,0.792 1.656,1.224 1,0.4 2.94,0.94 4.02,0.79 z"
         i:knockout="Off"
         id="path3896"
         inkscape:connector-curvature="0"
         style="fill:#da4100" />
      <path
         d="m 347.15,168.62 c -0.865,-0.648 -3.564,-1.08 -4.609,-0.72 -1.115,0.359 -1.654,1.691 -1.619,2.88 0,1.08 0.359,3.132 1.477,3.924 0.971,0.72 3.527,0.684 4.752,0.576 1.26,-0.18 2.447,-1.08 2.592,-1.584 -0.145,-0.648 -2.125,-1.368 -2.592,-2.16 -0.47,-1.01 0.68,-2.3 0,-2.92 z"
         i:knockout="Off"
         id="path3898"
         inkscape:connector-curvature="0"
         style="fill:#da4100" />
      <path
         d="m 164.66,186.66 c -2.844,-0.685 -5.256,-1.62 -7.632,-2.952 -2.484,-1.404 -4.608,-3.708 -6.372,-5.112 -1.656,-1.512 -2.7,-3.239 -3.96,-3.527 -1.44,-0.433 -2.772,-0.756 -4.392,1.403 -1.656,2.124 -4.104,7.381 -5.4,11.341 -1.404,3.779 -2.628,7.739 -2.7,12.023 -0.144,4.356 -0.036,9.685 2.268,13.896 2.304,4.067 6.876,8.208 11.34,10.62 4.248,2.304 7.632,2.88 14.472,3.527 6.912,0.612 19.116,0.433 26.46,0.288 7.092,-0.324 11.7,0.36 16.308,-1.548 4.572,-1.944 8.568,-6.372 11.16,-9.792 2.412,-3.6 3.744,-7.236 3.708,-10.908 -0.036,-3.708 -2.052,-7.992 -3.96,-10.908 -2.016,-3.023 -6.192,-4.68 -7.956,-6.768 -1.836,-2.088 -2.916,-3.708 -2.808,-5.832 0.036,-2.304 0.972,-4.896 2.952,-7.776 l 0,-12.744 c -0.288,-0.611 -0.936,-1.367 -1.944,-2.411 -1.116,-1.116 -1.8,-2.521 -4.14,-3.816 -2.412,-1.404 -6.552,-3.384 -9.9,-3.996 -3.6,-0.684 -7.056,-0.54 -10.368,0.432 -3.348,1.009 -6.768,2.988 -8.892,5.4 -2.196,2.269 -3.06,5.508 -3.564,8.208 -0.54,2.521 -0.396,4.608 0.432,7.092 0.72,2.412 2.556,5.652 3.96,7.632 1.368,1.872 3.06,2.557 3.96,3.708 0.756,1.08 1.188,2.16 0.864,2.952 -0.432,0.756 -1.476,1.548 -2.988,1.692 -1.584,-0.072 -4.428,-0.72 -6.192,-1.116 -1.8,-0.38 -3.42,-0.67 -4.72,-0.99 z"
         i:knockout="Off"
         id="path3900"
         inkscape:connector-curvature="0"
         style="fill:#f2c802" />
      <path
         d="m 137.92,186.59 c 0.036,-1.188 1.8,-4.859 2.808,-6.588 0.864,-1.836 1.62,-3.348 2.7,-3.996 0.936,-0.792 1.548,-0.936 3.24,0 1.548,0.9 4.032,4.141 6.336,5.832 2.196,1.692 4.068,3.132 7.02,4.32 2.88,1.116 8.892,2.088 10.116,2.771 1.008,0.648 -1.08,1.188 -3.348,1.08 -2.376,-0.359 -7.236,-2.195 -10.116,-2.447 -2.88,-0.217 -5.004,1.512 -6.804,0.863 -1.872,-0.828 -3.204,-4.464 -4.284,-5.508 -1.224,-1.152 -1.764,-1.656 -2.592,-0.972 -0.9,0.611 -1.764,4.031 -2.592,4.859 -0.92,0.77 -2.58,0.88 -2.5,-0.2 z"
         i:knockout="Off"
         id="path3902"
         inkscape:connector-curvature="0"
         style="fill:#d8a202" />
      <path
         d="m 157.32,193.68 c 0.828,-0.252 7.092,1.477 12.276,2.269 5.112,0.612 13.896,1.224 18.432,2.268 4.428,1.008 6.84,1.944 8.496,4.176 1.548,2.089 1.944,6.229 1.188,8.965 -0.828,2.699 -2.952,5.651 -5.832,7.308 -3.024,1.62 -6.948,2.34 -11.628,2.16 -4.86,-0.36 -15.012,-3.42 -16.272,-3.888 -1.116,-0.469 5.256,0.827 9.396,0.972 4.068,-0.072 10.908,0.576 14.544,-0.972 3.456,-1.656 5.508,-5.904 6.012,-8.28 0.432,-2.448 -1.116,-4.428 -3.528,-5.94 -2.592,-1.548 -7.056,-2.376 -11.448,-3.312 -4.464,-1.008 -11.016,-1.692 -14.652,-2.592 -3.71,-1.02 -7.85,-3.03 -6.99,-3.14 z"
         i:knockout="Off"
         id="path3904"
         inkscape:connector-curvature="0"
         style="fill:#d8a202" />
      <path
         d="m 187.81,151.85 c 2.34,-0.035 4.5,0.288 6.768,0.973 2.196,0.504 4.356,1.548 6.48,2.987 1.98,1.513 5.004,3.853 6.012,6.049 1.008,2.088 -0.144,4.104 0,6.336 0,2.088 0.072,4.212 0.216,6.372 -1.08,1.008 -1.872,2.268 -2.376,3.779 -0.504,1.584 -1.152,3.349 -0.828,5.148 0.18,1.548 0.504,2.556 2.232,4.428 1.692,1.8 7.704,5.76 7.776,6.48 -0.18,0.468 -5.976,-0.9 -8.208,-2.7 -2.34,-1.836 -3.528,-6.444 -5.364,-7.992 -1.98,-1.62 -5.688,-0.108 -5.832,-1.728 -0.252,-1.801 3.636,-5.544 4.86,-8.604 1.116,-3.168 2.484,-7.128 2.16,-9.792 -0.54,-2.736 -2.916,-5.076 -4.752,-6.048 -1.908,-0.972 -4.248,0.828 -6.336,0.54 -2.232,-0.36 -5.76,-1.26 -6.264,-2.269 -0.51,-1.13 0.64,-2.35 3.45,-3.97 z"
         i:knockout="Off"
         id="path3906"
         inkscape:connector-curvature="0"
         style="fill:#d8a202" />
      <path
         d="m 195.3,158.39 c 2.345,0 4.248,2.049 4.248,4.572 0,2.524 -1.903,4.572 -4.248,4.572 -2.345,0 -4.248,-2.048 -4.248,-4.572 0,-2.52 1.91,-4.57 4.25,-4.57"
         i:knockout="Off"
         id="path3908"
         inkscape:connector-curvature="0"
         style="fill:#ffffff" />
      <path
         i:knockout="Off"
         d="m 195.66,159.54 c 1.372,0 2.484,1.21 2.484,2.7 0,1.49 -1.113,2.7 -2.484,2.7 -1.371,0 -2.484,-1.21 -2.484,-2.7 0,-1.49 1.11,-2.7 2.48,-2.7"
         id="path3910"
         inkscape:connector-curvature="0" />
      <path
         d="m 196.02,161.51 c 0.497,0 0.9,0.436 0.9,0.973 0,0.536 -0.403,0.972 -0.9,0.972 -0.497,0 -0.9,-0.436 -0.9,-0.972 0,-0.53 0.4,-0.97 0.9,-0.97"
         i:knockout="Off"
         id="path3912"
         inkscape:connector-curvature="0"
         style="fill:#ffffff" />
      <path
         d="m 176.29,160.67 c -1.764,1.008 -2.448,3.492 -2.484,5.508 -0.144,1.98 -0.072,6.444 1.728,6.444 1.692,-0.18 6.804,-4.572 8.388,-6.768 1.476,-2.196 1.62,-5.364 0.432,-6.156 -1.41,-0.93 -6.27,-0.14 -8.07,0.98 z"
         i:knockout="Off"
         id="path3914"
         inkscape:connector-curvature="0"
         style="fill:#ffe42e" />
      <path
         d="m 179.28,182.7 c 0.9,0.036 2.772,1.296 5.184,1.836 2.268,0.36 7.74,-0.108 8.496,0.54 0.612,0.468 -1.944,1.908 -4.608,2.808 -2.772,0.9 -9.972,2.448 -11.448,2.557 -1.476,-0.072 2.124,-1.44 2.592,-2.448 0.288,-1.08 -0.288,-2.808 -0.324,-3.672 -0.14,-0.91 -0.75,-1.77 0.11,-1.63 z"
         i:knockout="Off"
         id="path3916"
         inkscape:connector-curvature="0"
         style="fill:#ffe42e" />
      <path
         d="m 140.4,194.87 c -0.252,0.9 1.008,5.868 2.376,7.956 1.26,1.979 3.708,3.924 4.968,3.888 1.116,-0.252 2.016,-3.42 1.584,-4.932 -0.648,-1.62 -3.276,-2.988 -4.824,-4.104 -1.63,-1.2 -3.79,-3.76 -4.11,-2.82 z"
         i:knockout="Off"
         id="path3918"
         inkscape:connector-curvature="0"
         style="fill:#ffe42e" />
      <path
         d="m 167.44,200.48 c -0.396,-0.54 -2.844,-0.324 -4.824,-0.756 -2.124,-0.576 -5.976,-2.448 -7.236,-2.269 -1.368,0.216 -1.8,2.304 -0.324,3.348 1.476,0.792 7.236,1.944 9.36,1.908 2.04,-0.07 3.23,-1.83 3.02,-2.23 z"
         i:knockout="Off"
         id="path3920"
         inkscape:connector-curvature="0"
         style="fill:#ffe42e" />
      <path
         d="m 166.39,205.16 c -0.36,-0.396 -2.376,-0.036 -4.104,-0.18 -1.764,-0.36 -5.22,-1.404 -6.192,-1.188 -1.044,0.324 -1.404,2.052 0.036,2.809 1.332,0.611 6.156,0.899 7.956,0.72 1.64,-0.36 2.54,-1.72 2.29,-2.16 z"
         i:knockout="Off"
         id="path3922"
         inkscape:connector-curvature="0"
         style="fill:#ffe42e" />
      <path
         d="m 166.97,210.24 c -0.468,-0.36 -2.196,0.036 -3.924,-0.072 -1.728,-0.252 -5.004,-1.296 -5.94,-1.044 -1.08,0.288 -1.188,2.016 0.108,2.664 1.26,0.504 5.868,0.792 7.596,0.576 1.54,-0.37 2.44,-1.77 2.15,-2.13 z"
         i:knockout="Off"
         id="path3924"
         inkscape:connector-curvature="0"
         style="fill:#ffe42e" />
      <path
         d="m 197.39,227.09 c 1.692,-0.144 4.176,-0.576 6.48,-1.296 2.088,-0.936 4.68,-2.412 6.66,-3.996 1.98,-1.728 3.708,-3.888 5.184,-6.048 1.332,-2.34 2.484,-5.004 2.88,-7.416 0.36,-2.484 0.036,-5.4 -0.828,-7.092 -1.044,-1.656 -2.916,-2.556 -4.644,-3.132 -1.836,-0.756 -5.688,-2.088 -5.724,-1.08 0,1.044 4.86,4.752 5.4,7.092 0.396,2.16 -2.844,3.996 -2.916,6.048 -0.144,1.836 2.628,3.601 1.944,5.58 -0.936,1.944 -4.176,5.184 -6.804,6.264 -2.808,1.009 -7.56,-0.647 -8.82,-0.107 -1.26,0.324 2.268,1.872 1.836,2.7 -0.504,0.827 -4.464,1.512 -4.536,2.052 -0.07,0.41 2.02,0.56 3.89,0.45 z"
         i:knockout="Off"
         id="path3926"
         inkscape:connector-curvature="0"
         style="fill:#d8a202" />
      <path
         d="m 205.16,167.54 c 0.612,-2.628 0.324,-3.563 2.52,-5.184 2.268,-1.656 8.748,-5.508 9.972,-4.788 1.224,0.792 0.252,3.744 -2.88,9.036 1.656,2.195 2.592,3.888 2.808,5.363 0.144,1.404 -0.684,2.412 -1.8,3.168 -1.188,0.612 -3.492,1.152 -5.112,0.792 -1.728,-0.396 -3.42,-1.619 -5.076,-3.384 0.01,0 -1.04,-2.34 -0.43,-5.01 z"
         i:knockout="Off"
         id="path3928"
         inkscape:connector-curvature="0"
         style="fill:#cd3204" />
      <path
         d="m 213.41,166.18 c 0.864,-0.396 1.188,-1.439 1.656,-2.592 0.468,-1.26 1.728,-3.815 1.152,-4.176 -0.756,-0.36 -3.852,1.548 -5.256,2.376 -1.584,0.756 -2.952,1.728 -3.276,2.376 -0.36,0.612 0.72,0.792 1.692,1.224 1.01,0.39 2.96,0.93 4.04,0.79 z"
         i:knockout="Off"
         id="path3930"
         inkscape:connector-curvature="0"
         style="fill:#da4100" />
      <path
         d="m 212.47,167.26 c -0.936,-0.576 -3.6,-1.188 -4.644,-0.72 -1.044,0.288 -1.62,1.764 -1.584,2.916 -0.072,1.116 0.36,3.06 1.44,3.888 0.972,0.721 3.492,0.685 4.788,0.576 1.26,-0.18 2.448,-1.08 2.592,-1.584 -0.144,-0.647 -2.124,-1.368 -2.592,-2.16 -0.48,-1.03 0.68,-2.32 -0.01,-2.93 z"
         i:knockout="Off"
         id="path3932"
         inkscape:connector-curvature="0"
         style="fill:#da4100" />
      <path
         d="m 77.508,157.46 c -2.664,-0.647 -5.04,-1.584 -7.272,-2.808 -2.304,-1.368 -4.464,-3.492 -6.084,-4.86 -1.728,-1.476 -2.484,-3.023 -3.78,-3.384 -1.476,-0.36 -2.592,-0.684 -4.176,1.368 -1.656,2.124 -3.816,6.876 -5.112,10.764 -1.404,3.601 -2.484,7.38 -2.556,11.484 -0.216,4.176 0,9.18 2.16,13.212 2.16,3.888 6.624,7.812 10.764,10.116 4.14,2.231 7.164,2.664 13.788,3.384 6.552,0.54 18.288,0.432 25.2,0.252 6.732,-0.18 11.124,0.252 15.516,-1.477 4.392,-1.943 8.172,-6.012 10.656,-9.287 2.412,-3.385 3.456,-6.948 3.528,-10.404 -0.036,-3.601 -1.944,-7.524 -3.78,-10.368 -2.016,-2.771 -5.832,-4.608 -7.56,-6.48 -1.728,-2.088 -2.808,-3.384 -2.7,-5.544 0,-2.231 0.9,-4.571 2.844,-7.416 l 0,-12.131 c -0.324,-0.504 -0.9,-1.404 -1.872,-2.304 -1.008,-1.116 -1.728,-2.376 -3.96,-3.636 -2.412,-1.332 -6.156,-3.24 -9.432,-3.78 -3.24,-0.576 -6.84,-0.576 -9.828,0.396 -3.24,0.936 -6.444,2.88 -8.496,5.148 -2.016,2.196 -2.916,5.256 -3.384,7.812 -0.54,2.448 -0.36,4.32 0.396,6.732 0.684,2.304 2.448,5.437 3.78,7.308 1.296,1.692 2.88,2.484 3.78,3.492 0.72,0.973 1.116,2.053 0.792,2.845 -0.432,0.72 -1.368,1.439 -2.808,1.619 -1.44,-0.071 -4.284,-0.72 -5.904,-1.115 -1.738,-0.3 -3.286,-0.66 -4.51,-0.92 z"
         i:knockout="Off"
         id="path3934"
         inkscape:connector-curvature="0"
         style="fill:#f2c802" />
      <path
         d="m 52.056,157.39 c 0,-1.188 1.764,-4.571 2.664,-6.264 0.828,-1.764 1.584,-3.204 2.556,-3.78 0.936,-0.684 1.44,-1.008 3.06,0 1.476,0.937 3.924,3.744 6.084,5.509 2.088,1.548 3.888,2.916 6.66,4.104 2.7,1.08 8.46,1.98 9.648,2.7 1.008,0.576 -1.08,1.188 -3.204,1.008 -2.196,-0.216 -6.984,-2.16 -9.648,-2.34 -2.7,-0.252 -4.752,1.44 -6.444,0.792 -1.836,-0.792 -3.024,-4.248 -4.104,-5.22 -1.188,-1.08 -1.692,-1.62 -2.484,-0.937 -0.828,0.54 -1.692,3.889 -2.448,4.645 -0.9,0.73 -2.376,0.8 -2.34,-0.21 z"
         i:knockout="Off"
         id="path3936"
         inkscape:connector-curvature="0"
         style="fill:#d8a202" />
      <path
         d="m 70.488,164.16 c 0.792,-0.18 6.768,1.368 11.7,2.16 4.86,0.576 13.212,1.151 17.568,2.16 4.248,0.972 6.444,1.836 8.1,3.995 1.476,2.124 1.8,5.797 1.116,8.496 -0.828,2.521 -2.808,5.4 -5.544,6.984 -2.952,1.512 -6.588,2.196 -11.052,2.052 -4.5,-0.288 -14.4,-3.275 -15.516,-3.672 -1.08,-0.54 5.004,0.864 8.928,0.9 3.744,-0.036 10.584,0.504 13.86,-0.9 3.276,-1.512 5.184,-5.724 5.724,-7.92 0.36,-2.34 -1.044,-4.176 -3.384,-5.652 -2.448,-1.548 -6.768,-2.231 -10.872,-3.168 -4.248,-0.936 -10.512,-1.655 -13.932,-2.447 -3.468,-1.01 -7.644,-2.88 -6.708,-2.99 z"
         i:knockout="Off"
         id="path3938"
         inkscape:connector-curvature="0"
         style="fill:#d8a202" />
      <path
         d="m 99.54,124.31 c 2.196,-0.108 4.356,0.324 6.48,0.9 2.088,0.576 4.14,1.404 6.156,2.88 1.872,1.404 4.752,3.78 5.724,5.76 0.9,1.944 -0.072,3.96 0,6.048 0,1.979 0.072,3.995 0.216,6.048 -1.008,0.972 -1.764,2.124 -2.268,3.6 -0.504,1.512 -1.152,3.204 -0.828,4.932 0.144,1.477 0.54,2.412 2.16,4.213 1.62,1.8 7.272,5.363 7.38,6.119 -0.144,0.54 -5.652,-0.863 -7.776,-2.556 -2.16,-1.8 -3.456,-6.048 -5.148,-7.596 -1.908,-1.584 -5.328,-0.036 -5.544,-1.62 -0.108,-1.729 3.384,-5.292 4.644,-8.208 1.152,-3.024 2.304,-6.84 2.052,-9.36 -0.576,-2.52 -2.736,-4.932 -4.536,-5.724 -1.764,-0.936 -4.104,0.756 -6.048,0.504 -2.052,-0.432 -5.508,-1.152 -5.94,-2.16 -0.418,-1 0.626,-2.26 3.29,-3.77 z"
         i:knockout="Off"
         id="path3940"
         inkscape:connector-curvature="0"
         style="fill:#d8a202" />
      <path
         d="m 117.4,138.67 c -0.18,-1.332 -0.828,-2.88 -0.828,-3.816 -0.072,-0.936 0.288,-1.656 0.936,-1.728 0.648,-0.144 1.908,0.54 2.952,0.936 0.972,0.216 1.692,0.972 2.988,0.9 1.224,-0.144 3.096,-1.8 4.212,-1.62 0.936,0.072 1.476,1.044 1.62,2.34 0.072,1.224 0.504,3.132 -1.332,5.04 -2.052,1.729 -8.352,5.652 -10.152,5.94 -1.764,0.216 -0.504,-3.024 -0.504,-4.32 -0.16,-1.4 0.2,-2.48 0.1,-3.67 z"
         i:knockout="Off"
         id="path3942"
         inkscape:connector-curvature="0"
         style="fill:#cd3204" />
      <path
         d="m 120.67,136.3 c 0.612,-0.288 1.548,0.18 2.664,0 1.008,-0.324 2.808,-1.728 3.6,-1.44 0.756,0.252 1.692,1.512 0.72,3.096 -1.188,1.476 -5.868,5.076 -7.38,5.939 -1.44,0.685 -2.196,-0.432 -1.872,-1.115 0.216,-0.756 2.304,-2.124 2.664,-2.988 0.072,-0.972 -1.404,-1.8 -1.512,-2.34 -0.07,-0.58 0.4,-1.01 1.12,-1.15 z"
         i:knockout="Off"
         id="path3944"
         inkscape:connector-curvature="0"
         style="fill:#da4100" />
      <path
         d="m 106.62,130.53 c 2.226,0 4.032,1.951 4.032,4.356 0,2.404 -1.806,4.356 -4.032,4.356 -2.226,0 -4.032,-1.952 -4.032,-4.356 0,-2.41 1.8,-4.36 4.03,-4.36"
         i:knockout="Off"
         id="path3946"
         inkscape:connector-curvature="0"
         style="fill:#ffffff" />
      <path
         i:knockout="Off"
         d="m 107.1,131.73 c 1.312,0 2.376,1.145 2.376,2.556 0,1.411 -1.064,2.556 -2.376,2.556 -1.312,0 -2.376,-1.145 -2.376,-2.556 0,-1.42 1.07,-2.56 2.38,-2.56"
         id="path3948"
         inkscape:connector-curvature="0" />
      <path
         d="m 107.22,133.47 c 0.457,0 0.828,0.419 0.828,0.936 0,0.517 -0.371,0.936 -0.828,0.936 -0.457,0 -0.828,-0.419 -0.828,-0.936 0,-0.52 0.37,-0.94 0.83,-0.94"
         i:knockout="Off"
         id="path3950"
         inkscape:connector-curvature="0"
         style="fill:#ffffff" />
      <path
         d="m 88.56,132.7 c -1.656,0.972 -2.34,3.276 -2.34,5.256 -0.144,1.908 -0.072,6.084 1.62,6.156 1.548,-0.072 6.48,-4.501 7.992,-6.48 1.296,-2.124 1.62,-5.04 0.432,-5.832 -1.332,-0.81 -5.976,-0.23 -7.704,0.89 z"
         i:knockout="Off"
         id="path3952"
         inkscape:connector-curvature="0"
         style="fill:#ffe42e" />
      <path
         d="m 91.44,153.68 c 0.828,-0.036 2.664,1.331 4.932,1.764 2.124,0.359 7.416,-0.072 8.1,0.504 0.54,0.504 -1.908,1.764 -4.428,2.664 -2.664,0.864 -9.432,2.376 -10.872,2.448 -1.476,-0.036 2.124,-1.368 2.484,-2.341 0.288,-1.079 -0.288,-2.664 -0.324,-3.491 -0.032,-0.85 -0.824,-1.64 0.112,-1.54 z"
         i:knockout="Off"
         id="path3954"
         inkscape:connector-curvature="0"
         style="fill:#ffe42e" />
      <path
         d="m 54.396,165.28 c -0.36,0.792 1.044,5.688 2.268,7.596 1.188,1.764 3.6,3.924 4.716,3.708 1.044,-0.252 1.98,-3.312 1.548,-4.716 -0.648,-1.548 -3.168,-2.809 -4.644,-3.924 -1.44,-1.23 -3.708,-3.47 -3.888,-2.67 z"
         i:knockout="Off"
         id="path3956"
         inkscape:connector-curvature="0"
         style="fill:#ffe42e" />
      <path
         d="m 80.136,170.64 c -0.432,-0.432 -2.664,-0.396 -4.608,-0.72 -2.052,-0.54 -5.688,-2.376 -6.876,-2.16 -1.188,0.216 -1.836,2.196 -0.288,3.168 1.44,0.757 6.912,1.836 8.928,1.836 1.908,-0.04 3.132,-1.77 2.844,-2.13 z"
         i:knockout="Off"
         id="path3958"
         inkscape:connector-curvature="0"
         style="fill:#ffe42e" />
      <path
         d="m 79.128,175.1 c -0.36,-0.396 -2.304,-0.036 -3.888,-0.181 -1.764,-0.288 -4.932,-1.403 -5.904,-1.116 -0.972,0.288 -1.332,2.017 0.036,2.664 1.26,0.54 5.868,0.864 7.596,0.685 1.548,-0.27 2.448,-1.75 2.16,-2.04 z"
         i:knockout="Off"
         id="path3960"
         inkscape:connector-curvature="0"
         style="fill:#ffe42e" />
      <path
         d="m 79.704,179.93 c -0.468,-0.359 -2.088,0.036 -3.744,-0.071 -1.62,-0.145 -4.752,-1.404 -5.652,-1.009 -1.008,0.252 -1.152,1.944 0.108,2.557 1.152,0.432 5.652,0.756 7.236,0.54 1.476,-0.33 2.304,-1.7 2.052,-2.02 z"
         i:knockout="Off"
         id="path3962"
         inkscape:connector-curvature="0"
         style="fill:#ffe42e" />
      <path
         d="m 108.68,195.95 c 1.692,-0.036 3.924,-0.576 6.156,-1.225 1.98,-0.863 4.464,-2.268 6.336,-3.779 1.8,-1.62 3.636,-3.637 4.932,-5.76 1.224,-2.16 2.376,-4.788 2.772,-7.057 0.252,-2.34 0.072,-5.256 -0.828,-6.804 -0.936,-1.548 -2.772,-2.484 -4.392,-2.952 -1.764,-0.864 -5.328,-1.908 -5.436,-1.044 0,1.044 4.572,4.5 5.112,6.768 0.288,2.124 -2.628,3.816 -2.772,5.761 -0.144,1.764 2.52,3.491 1.872,5.328 -0.792,1.907 -4.068,4.859 -6.48,5.939 -2.556,0.864 -7.308,-0.504 -8.424,-0.072 -1.152,0.469 2.124,1.692 1.764,2.557 -0.432,0.792 -4.32,1.439 -4.32,1.943 -0.14,0.32 2.02,0.5 3.71,0.39 z"
         i:knockout="Off"
         id="path3964"
         inkscape:connector-curvature="0"
         style="fill:#d8a202" />
    </g>
  </g>
  <metadata
     id="metadata3966">
    <rdf:RDF>
      <cc:Work>
        <dc:format>image/svg+xml</dc:format>
        <dc:type
           rdf:resource="http://purl.org/dc/dcmitype/StillImage" />
        <cc:license
           rdf:resource="http://creativecommons.org/publicdomain/zero/1.0/" />
        <dc:publisher>
          <cc:Agent
             rdf:about="http://openclipart.org/">
            <dc:title>Openclipart</dc:title>
          </cc:Agent>
        </dc:publisher>
        <dc:title></dc:title>
        <dc:date>2007-11-22T23:45:15</dc:date>
        <dc:description />
        <dc:source>https://openclipart.org/detail/8883/rubber-duck-family-by-gerald_g-8883</dc:source>
        <dc:creator>
          <cc:Agent>
            <dc:title>Gerald_G</dc:title>
          </cc:Agent>
        </dc:creator>
        <dc:subject>
          <rdf:Bag>
            <rdf:li>animal</rdf:li>
            <rdf:li>bath</rdf:li>
            <rdf:li>duck</rdf:li>
            <rdf:li>rubber</rdf:li>
            <rdf:li>toy</rdf:li>
          </rdf:Bag>
        </dc:subject>
      </cc:Work>
      <cc:License
         rdf:about="http://creativecommons.org/publicdomain/zero/1.0/">
        <cc:permits
           rdf:resource="http://creativecommons.org/ns#Reproduction" />
        <cc:permits
           rdf:resource="http://creativecommons.org/ns#Distribution" />
        <cc:permits
           rdf:resource="http://creativecommons.org/ns#DerivativeWorks" />
      </cc:License>
    </rdf:RDF>
  </metadata>
  <flowRoot
     xml:space="preserve"
     id="flowRoot3972"
     style="font-style:normal;font-weight:normal;font-size:180px;line-height:125%;font-family:sans-serif;letter-spacing:0px;word-spacing:0px;fill:#000000;fill-opacity:1;stroke:none;stroke-width:1px;stroke-linecap:butt;stroke-linejoin:miter;stroke-opacity:1"
     transform="translate(3.030376e-8,-0.0157839)"><flowRegion
       id="flowRegion3974"><rect
         id="rect3976"
         width="479.77762"
         height="222.36884"
         x="33.692249"
         y="299.65582"
         style="font-size:180px" /></flowRegion><flowPara
       id="flowPara3978"></flowPara></flowRoot></svg>
